<svg width="28" height="28" viewBox="0 0 28 28" fill="none" xmlns="http://www.w3.org/2000/svg">
<path d="M19.2759 8.28464C19.369 8.19452 19.4801 8.12293 19.6027 8.07405C19.7252 8.02517 19.8569 8 19.9898 8C20.1228 8 20.2544 8.02517 20.377 8.07405C20.4996 8.12293 20.6106 8.19452 20.7037 8.28464C21.0937 8.65867 21.0992 9.26306 20.7173 9.64356L12.654 18.6901C12.5624 18.7855 12.4513 18.8622 12.3275 18.9154C12.2037 18.9687 12.0697 18.9974 11.9337 18.9998C11.7978 19.0023 11.6627 18.9783 11.5369 18.9295C11.411 18.8807 11.2969 18.808 11.2017 18.716L6.29522 13.9973C6.106 13.8141 6 13.5679 6 13.3113C6 13.0548 6.106 12.8086 6.29522 12.6254C6.38829 12.5353 6.49936 12.4637 6.62194 12.4148C6.74452 12.3659 6.87614 12.3408 7.0091 12.3408C7.14206 12.3408 7.27368 12.3659 7.39626 12.4148C7.51884 12.4637 7.62991 12.5353 7.72298 12.6254L11.8849 16.6284L19.2487 8.31311C19.2571 8.30311 19.2663 8.2936 19.2759 8.28464Z" fill="#126A3A"/>
</svg>
