<svg width="14" height="11" viewBox="0 0 14 11" fill="none" xmlns="http://www.w3.org/2000/svg">
<path fill-rule="evenodd" clip-rule="evenodd" d="M6.85397 8.87412C6.80753 8.91402 6.75235 8.94568 6.69162 8.96728C6.63088 8.98888 6.56576 9 6.5 9C6.43424 9 6.36913 8.98888 6.30839 8.96728C6.24765 8.94568 6.19248 8.91402 6.14603 8.87412L0.146618 3.73238C0.0527403 3.65193 7.78155e-07 3.5428 7.68208e-07 3.42902C7.58261e-07 3.31524 0.0527402 3.20611 0.146618 3.12566C0.240495 3.0452 0.367821 3 0.500583 3C0.633346 3 0.760672 3.0452 0.854549 3.12566L6.5 7.96489L12.1455 3.12566C12.2393 3.0452 12.3667 3 12.4994 3C12.6322 3 12.7595 3.0452 12.8534 3.12566C12.9473 3.20611 13 3.31524 13 3.42902C13 3.5428 12.9473 3.65192 12.8534 3.73238L6.85397 8.87412V8.87412Z" fill="white"/>
</svg>
