<svg width="24" height="24" viewBox="0 0 24 24" fill="none" xmlns="http://www.w3.org/2000/svg">
<g clip-path="url(#clip0_2_7885)">
<path d="M19.281 0.219102C19.1403 0.0784983 18.9496 -0.000488281 18.7507 -0.000488281C18.5518 -0.000488281 18.3611 0.0784983 18.2205 0.219102L15.75 2.6896L21.3105 8.2501L23.781 5.7811C23.8508 5.71143 23.9062 5.62867 23.944 5.53755C23.9818 5.44643 24.0013 5.34875 24.0013 5.2501C24.0013 5.15145 23.9818 5.05377 23.944 4.96265C23.9062 4.87153 23.8508 4.78877 23.781 4.7191L19.281 0.219102ZM20.25 9.3106L14.6895 3.7501L4.93945 13.5001H5.24995C5.44887 13.5001 5.63963 13.5791 5.78028 13.7198C5.92094 13.8604 5.99995 14.0512 5.99995 14.2501V15.0001H6.74995C6.94887 15.0001 7.13963 15.0791 7.28028 15.2198C7.42094 15.3604 7.49995 15.5512 7.49995 15.7501V16.5001H8.24995C8.44886 16.5001 8.63963 16.5791 8.78028 16.7198C8.92094 16.8604 8.99995 17.0512 8.99995 17.2501V18.0001H9.74995C9.94886 18.0001 10.1396 18.0791 10.2803 18.2198C10.4209 18.3604 10.5 18.5512 10.5 18.7501V19.0606L20.25 9.3106ZM9.04795 20.5126C9.01639 20.4287 9.00013 20.3398 8.99995 20.2501V19.5001H8.24995C8.05104 19.5001 7.86028 19.4211 7.71962 19.2804C7.57897 19.1398 7.49995 18.949 7.49995 18.7501V18.0001H6.74995C6.55104 18.0001 6.36028 17.9211 6.21962 17.7804C6.07897 17.6398 5.99995 17.449 5.99995 17.2501V16.5001H5.24995C5.05104 16.5001 4.86028 16.4211 4.71962 16.2804C4.57897 16.1398 4.49995 15.949 4.49995 15.7501V15.0001H3.74995C3.66028 15 3.57137 14.9837 3.48745 14.9521L3.21895 15.2191C3.14748 15.2911 3.09135 15.3768 3.05395 15.4711L0.0539533 22.9711C-0.00060275 23.1074 -0.013958 23.2567 0.0155432 23.4005C0.0450444 23.5443 0.116105 23.6763 0.219914 23.7801C0.323724 23.8839 0.455718 23.955 0.599532 23.9845C0.743347 24.014 0.892657 24.0007 1.02895 23.9461L8.52895 20.9461C8.62325 20.9087 8.70898 20.8526 8.78095 20.7811L9.04795 20.5141V20.5126Z" fill="#126A3A"/>
</g>
<defs>
<clipPath id="clip0_2_7885">
<rect width="24" height="24" fill="white"/>
</clipPath>
</defs>
</svg>
