<svg width="102" height="102" viewBox="0 0 102 102" fill="none" xmlns="http://www.w3.org/2000/svg">
<path d="M82 0H20C8.95431 0 0 8.9543 0 20V82C0 93.0457 8.9543 102 20 102H82C93.0457 102 102 93.0457 102 82V20C102 8.95431 93.0457 0 82 0Z" fill="white"/>
<path d="M33.4186 11.0107C33.0886 11.0107 32.8086 11.2807 32.8086 11.6207V13.8607H35.6586V11.0107H33.4186Z" fill="#5C9247"/>
<path d="M38.5102 11.0107H35.6602V13.8607H38.5102V11.0107Z" fill="#5C9247"/>
<path d="M41.3598 11.0107H38.5098V13.8607H41.3598V11.0107Z" fill="#5C9247"/>
<path d="M41.9691 13.86H43.6091C43.9391 13.86 44.2191 13.59 44.2191 13.25V11.61C44.2191 11.28 43.9491 11 43.6091 11H41.3691V13.85H41.9791L41.9691 13.86Z" fill="#5C9247"/>
<path d="M52.1502 11.0107H50.5202C50.1833 11.0107 49.9102 11.2838 49.9102 11.6207V13.2507C49.9102 13.5876 50.1833 13.8607 50.5202 13.8607H52.1502C52.4871 13.8607 52.7602 13.5876 52.7602 13.2507V11.6207C52.7602 11.2838 52.4871 11.0107 52.1502 11.0107Z" fill="#5C9247"/>
<path d="M57.8494 11.0107H56.2194C55.8825 11.0107 55.6094 11.2838 55.6094 11.6207V13.2507C55.6094 13.5876 55.8825 13.8607 56.2194 13.8607H57.8494C58.1863 13.8607 58.4594 13.5876 58.4594 13.2507V11.6207C58.4594 11.2838 58.1863 11.0107 57.8494 11.0107Z" fill="#5C9247"/>
<path d="M66.4002 11.0107H64.7702C64.4333 11.0107 64.1602 11.2838 64.1602 11.6207V13.2507C64.1602 13.5876 64.4333 13.8607 64.7702 13.8607H66.4002C66.7371 13.8607 67.0102 13.5876 67.0102 13.2507V11.6207C67.0102 11.2838 66.7371 11.0107 66.4002 11.0107Z" fill="#5C9247"/>
<path d="M35.6586 13.8604H32.8086V16.7104H35.6586V13.8604Z" fill="#5C9247"/>
<path d="M38.5102 13.8604H35.6602V16.7104H38.5102V13.8604Z" fill="#5C9247"/>
<path d="M41.3598 16.1004C41.3598 16.4304 41.0898 16.7104 40.7498 16.7104H38.5098V13.8604H41.3598V16.1004Z" fill="#5C9247"/>
<path d="M41.9694 13.8604H41.3594V14.4704C41.3594 14.1404 41.6294 13.8604 41.9694 13.8604Z" fill="#5C9247"/>
<path d="M49.2986 13.8604H47.6686C47.3317 13.8604 47.0586 14.1335 47.0586 14.4704V16.1004C47.0586 16.4372 47.3317 16.7104 47.6686 16.7104H49.2986C49.6355 16.7104 49.9086 16.4372 49.9086 16.1004V14.4704C49.9086 14.1335 49.6355 13.8604 49.2986 13.8604Z" fill="#5C9247"/>
<path d="M55.61 16.1006V14.4606C55.61 14.1306 55.34 13.8506 55 13.8506H53.36C53.03 13.8506 52.75 14.1206 52.75 14.4606V16.7006H55.6V16.0906L55.61 16.1006Z" fill="#5C9247"/>
<path d="M64.1588 16.1006V14.4606C64.1588 14.1306 63.8888 13.8506 63.5488 13.8506H61.9088C61.5788 13.8506 61.2988 14.1206 61.2988 14.4606V16.7006H64.1488V16.0906L64.1588 16.1006Z" fill="#5C9247"/>
<path d="M35.6586 16.71H32.8086V19.56H35.6586V16.71Z" fill="#5C9247"/>
<path d="M38.5102 18.95C38.5102 19.28 38.2402 19.56 37.9002 19.56H35.6602V16.71H38.5102V18.95Z" fill="#5C9247"/>
<path d="M39.1198 16.71H38.5098V17.32C38.5098 16.99 38.7798 16.71 39.1198 16.71Z" fill="#5C9247"/>
<path d="M41.9694 16.71C41.6394 16.71 41.3594 16.98 41.3594 17.32V19.56H44.2094V16.71H41.9694Z" fill="#5C9247"/>
<path d="M44.8187 19.5602H46.4587C46.7887 19.5602 47.0687 19.2902 47.0687 18.9502V17.3102C47.0687 16.9802 46.7987 16.7002 46.4587 16.7002H44.2188V19.5502H44.8288L44.8187 19.5602Z" fill="#5C9247"/>
<path d="M52.1484 19.5602C52.4784 19.5602 52.7584 19.2902 52.7584 18.9502V19.5602H52.1484Z" fill="#5C9247"/>
<path d="M55.6098 16.71H52.7598V19.56H55.6098V16.71Z" fill="#5C9247"/>
<path d="M61.3086 18.95C61.3086 19.28 61.5786 19.56 61.9186 19.56H63.5586C63.8886 19.56 64.1686 19.29 64.1686 18.95V16.71H61.3186V18.95H61.3086Z" fill="#5C9247"/>
<path d="M35.6586 19.5605H32.8086V22.4105H35.6586V19.5605Z" fill="#5C9247"/>
<path d="M36.2702 19.5605H35.6602V20.1705C35.6602 19.8405 35.9302 19.5605 36.2702 19.5605Z" fill="#5C9247"/>
<path d="M44.2094 19.5605H41.3594V22.4105H44.2094V19.5605Z" fill="#5C9247"/>
<path d="M44.819 19.5605H44.209V20.1705C44.209 19.8405 44.479 19.5605 44.819 19.5605Z" fill="#5C9247"/>
<path d="M49.2988 19.5605H47.6588C47.3288 19.5605 47.0488 19.8305 47.0488 20.1705V21.8105C47.0488 22.1405 47.3188 22.4205 47.6588 22.4205H49.8988V19.5705H49.2888L49.2988 19.5605Z" fill="#5C9247"/>
<path d="M52.7602 19.5605H49.9102V22.4105H52.7602V19.5605Z" fill="#5C9247"/>
<path d="M55.6098 21.8005C55.6098 22.1305 55.3398 22.4105 54.9998 22.4105H52.7598V19.5605H55.6098V21.8005V21.8005Z" fill="#5C9247"/>
<path d="M60.699 19.5605H59.069C58.7321 19.5605 58.459 19.8337 58.459 20.1705V21.8005C58.459 22.1374 58.7321 22.4105 59.069 22.4105H60.699C61.0359 22.4105 61.309 22.1374 61.309 21.8005V20.1705C61.309 19.8337 61.0359 19.5605 60.699 19.5605Z" fill="#5C9247"/>
<path d="M69.86 21.8008V20.1608C69.86 19.8308 69.59 19.5508 69.25 19.5508H67.61C67.28 19.5508 67 19.8208 67 20.1608V22.4008H69.85V21.7908L69.86 21.8008Z" fill="#5C9247"/>
<path d="M32.8086 24.6502C32.8086 24.9802 33.0786 25.2602 33.4186 25.2602H35.0586C35.3886 25.2602 35.6686 24.9902 35.6686 24.6502V22.4102H32.8186V24.6502H32.8086Z" fill="#5C9247"/>
<path d="M40.75 25.2604C41.08 25.2604 41.36 24.9904 41.36 24.6504V25.2604H40.75Z" fill="#5C9247"/>
<path d="M44.2094 22.4102H41.3594V25.2602H44.2094V22.4102Z" fill="#5C9247"/>
<path d="M44.819 25.2604C44.489 25.2604 44.209 24.9904 44.209 24.6504V25.2604H44.819Z" fill="#5C9247"/>
<path d="M49.9088 23.0202V22.4102H49.2988C49.6288 22.4102 49.9088 22.6802 49.9088 23.0202Z" fill="#5C9247"/>
<path d="M49.9102 24.6502C49.9102 24.9802 50.1802 25.2602 50.5202 25.2602H52.1602C52.4902 25.2602 52.7702 24.9902 52.7702 24.6502V22.4102H49.9202V24.6502H49.9102Z" fill="#5C9247"/>
<path d="M53.3698 22.4102H52.7598V23.0202C52.7598 22.6902 53.0298 22.4102 53.3698 22.4102Z" fill="#5C9247"/>
<path d="M57.8494 22.4102H56.2194C55.8825 22.4102 55.6094 22.6833 55.6094 23.0202V24.6502C55.6094 24.9871 55.8825 25.2602 56.2194 25.2602H57.8494C58.1863 25.2602 58.4594 24.9871 58.4594 24.6502V23.0202C58.4594 22.6833 58.1863 22.4102 57.8494 22.4102Z" fill="#5C9247"/>
<path d="M63.5486 22.4102H61.9186C61.5817 22.4102 61.3086 22.6833 61.3086 23.0202V24.6502C61.3086 24.9871 61.5817 25.2602 61.9186 25.2602H63.5486C63.8855 25.2602 64.1586 24.9871 64.1586 24.6502V23.0202C64.1586 22.6833 63.8855 22.4102 63.5486 22.4102Z" fill="#5C9247"/>
<path d="M67.0098 24.6502C67.0098 24.9802 67.2798 25.2602 67.6198 25.2602H69.2598C69.5898 25.2602 69.8698 24.9902 69.8698 24.6502V22.4102H67.0198V24.6502H67.0098Z" fill="#5C9247"/>
<path d="M37.8984 25.2607H36.2584C35.9284 25.2607 35.6484 25.5307 35.6484 25.8707V27.5107C35.6484 27.8407 35.9184 28.1207 36.2584 28.1207H38.4984V25.2707H37.8884L37.8984 25.2607Z" fill="#5C9247"/>
<path d="M41.3598 25.2607H38.5098V28.1107H41.3598V25.2607Z" fill="#5C9247"/>
<path d="M44.2094 25.2607H41.3594V28.1107H44.2094V25.2607Z" fill="#5C9247"/>
<path d="M46.449 25.2607C46.779 25.2607 47.059 25.5307 47.059 25.8707V28.1107H44.209V25.2607H46.449Z" fill="#5C9247"/>
<path d="M66.4002 25.2607H64.7702C64.4333 25.2607 64.1602 25.5338 64.1602 25.8707V27.5007C64.1602 27.8376 64.4333 28.1107 64.7702 28.1107H66.4002C66.7371 28.1107 67.0102 27.8376 67.0102 27.5007V25.8707C67.0102 25.5338 66.7371 25.2607 66.4002 25.2607Z" fill="#5C9247"/>
<path d="M35.0486 28.1104H33.4186C33.0817 28.1104 32.8086 28.3835 32.8086 28.7204V30.3504C32.8086 30.6872 33.0817 30.9604 33.4186 30.9604H35.0486C35.3855 30.9604 35.6586 30.6872 35.6586 30.3504V28.7204C35.6586 28.3835 35.3855 28.1104 35.0486 28.1104Z" fill="#5C9247"/>
<path d="M38.5084 28.7204V28.1104H37.8984C38.2284 28.1104 38.5084 28.3804 38.5084 28.7204Z" fill="#5C9247"/>
<path d="M38.5098 30.3504C38.5098 30.6804 38.7798 30.9604 39.1198 30.9604H40.7598C41.0898 30.9604 41.3698 30.6904 41.3698 30.3504V28.1104H38.5198V30.3504H38.5098Z" fill="#5C9247"/>
<path d="M41.9694 28.1104H41.3594V28.7204C41.3594 28.3904 41.6294 28.1104 41.9694 28.1104Z" fill="#5C9247"/>
<path d="M44.2096 28.7204V28.1104H43.5996C43.9296 28.1104 44.2096 28.3804 44.2096 28.7204Z" fill="#5C9247"/>
<path d="M43.5996 30.9606C43.9296 30.9606 44.2096 30.6906 44.2096 30.3506V30.9606H43.5996Z" fill="#5C9247"/>
<path d="M47.059 28.1104H44.209V30.9604H47.059V28.1104Z" fill="#5C9247"/>
<path d="M47.6686 30.9606C47.3386 30.9606 47.0586 30.6906 47.0586 30.3506V30.9606H47.6686Z" fill="#5C9247"/>
<path d="M52.1502 28.1104H50.5202C50.1833 28.1104 49.9102 28.3835 49.9102 28.7204V30.3504C49.9102 30.6872 50.1833 30.9604 50.5202 30.9604H52.1502C52.4871 30.9604 52.7602 30.6872 52.7602 30.3504V28.7204C52.7602 28.3835 52.4871 28.1104 52.1502 28.1104Z" fill="#5C9247"/>
<path d="M57.8494 28.1104H56.2194C55.8825 28.1104 55.6094 28.3835 55.6094 28.7204V30.3504C55.6094 30.6872 55.8825 30.9604 56.2194 30.9604H57.8494C58.1863 30.9604 58.4594 30.6872 58.4594 30.3504V28.7204C58.4594 28.3835 58.1863 28.1104 57.8494 28.1104Z" fill="#5C9247"/>
<path d="M63.5486 28.1104H61.9186C61.5817 28.1104 61.3086 28.3835 61.3086 28.7204V30.3504C61.3086 30.6872 61.5817 30.9604 61.9186 30.9604H63.5486C63.8855 30.9604 64.1586 30.6872 64.1586 30.3504V28.7204C64.1586 28.3835 63.8855 28.1104 63.5486 28.1104Z" fill="#5C9247"/>
<path d="M69.86 30.3506V28.7106C69.86 28.3806 69.59 28.1006 69.25 28.1006H67.61C67.28 28.1006 67 28.3706 67 28.7106V30.9506H69.85V30.3406L69.86 30.3506Z" fill="#5C9247"/>
<path d="M38.5084 33.2002V31.5602C38.5084 31.2302 38.2384 30.9502 37.8984 30.9502H36.2584C35.9284 30.9502 35.6484 31.2202 35.6484 31.5602V33.8002H38.4984V33.1902L38.5084 33.2002Z" fill="#5C9247"/>
<path d="M40.75 33.8102C41.08 33.8102 41.36 33.5402 41.36 33.2002V33.8102H40.75Z" fill="#5C9247"/>
<path d="M39.1198 33.8102C38.7898 33.8102 38.5098 33.5402 38.5098 33.2002V33.8102H39.1198Z" fill="#5C9247"/>
<path d="M41.9694 30.96C41.6394 30.96 41.3594 31.23 41.3594 31.57V33.81H44.2094V30.96H41.9694Z" fill="#5C9247"/>
<path d="M47.059 30.96H44.209V33.81H47.059V30.96Z" fill="#5C9247"/>
<path d="M49.2986 30.96C49.6286 30.96 49.9086 31.23 49.9086 31.57V33.81H47.0586V30.96H49.2986Z" fill="#5C9247"/>
<path d="M50.5202 33.8102C50.1902 33.8102 49.9102 33.5402 49.9102 33.2002V33.8102H50.5202Z" fill="#5C9247"/>
<path d="M57.8496 33.8102C58.1796 33.8102 58.4596 33.5402 58.4596 33.2002V33.8102H57.8496Z" fill="#5C9247"/>
<path d="M61.3092 33.2002V31.5602C61.3092 31.2302 61.0392 30.9502 60.6992 30.9502H59.0592C58.7292 30.9502 58.4492 31.2202 58.4492 31.5602V33.8002H61.2992V33.1902L61.3092 33.2002Z" fill="#5C9247"/>
<path d="M67.0098 33.2C67.0098 33.53 67.2798 33.81 67.6198 33.81H69.2598C69.5898 33.81 69.8698 33.54 69.8698 33.2V30.96H67.0198V33.2H67.0098Z" fill="#5C9247"/>
<path d="M20.7988 33.8105H19.1588C18.8288 33.8105 18.5488 34.0805 18.5488 34.4205V36.0605C18.5488 36.3905 18.8188 36.6705 19.1588 36.6705H21.3988V33.8205H20.7888L20.7988 33.8105Z" fill="#5C9247"/>
<path d="M23.6502 33.8105C23.9802 33.8105 24.2602 34.0805 24.2602 34.4205V36.6605H21.4102V33.8105H23.6502V33.8105Z" fill="#5C9247"/>
<path d="M29.3496 33.8105H27.7096C27.3796 33.8105 27.0996 34.0805 27.0996 34.4205V36.0605C27.0996 36.3905 27.3696 36.6705 27.7096 36.6705H29.9496V33.8205H29.3396L29.3496 33.8105Z" fill="#5C9247"/>
<path d="M30.5687 36.6608H32.2087C32.5387 36.6608 32.8187 36.3908 32.8187 36.0508V34.4108C32.8187 34.0808 32.5487 33.8008 32.2087 33.8008H29.9688V36.6508H30.5787L30.5687 36.6608Z" fill="#5C9247"/>
<path d="M38.5102 33.8105H35.6602V36.6605H38.5102V33.8105Z" fill="#5C9247"/>
<path d="M41.3598 33.8105H38.5098V36.6605H41.3598V33.8105Z" fill="#5C9247"/>
<path d="M44.2094 33.8105H41.3594V36.6605H44.2094V33.8105Z" fill="#5C9247"/>
<path d="M47.059 33.8105H44.209V36.6605H47.059V33.8105Z" fill="#5C9247"/>
<path d="M49.9086 33.8105H47.0586V36.6605H49.9086V33.8105Z" fill="#5C9247"/>
<path d="M52.1502 33.8105C52.4802 33.8105 52.7602 34.0805 52.7602 34.4205V36.6605H49.9102V33.8105H52.1502V33.8105Z" fill="#5C9247"/>
<path d="M57.8496 33.8105H56.2096C55.8796 33.8105 55.5996 34.0805 55.5996 34.4205V36.0605C55.5996 36.3905 55.8696 36.6705 56.2096 36.6705H58.4496V33.8205H57.8396L57.8496 33.8105Z" fill="#5C9247"/>
<path d="M61.309 36.0505C61.309 36.3805 61.039 36.6605 60.699 36.6605H58.459V33.8105H61.309V36.0505Z" fill="#5C9247"/>
<path d="M74.949 33.8105H73.319C72.9821 33.8105 72.709 34.0837 72.709 34.4205V36.0505C72.709 36.3874 72.9821 36.6605 73.319 36.6605H74.949C75.2859 36.6605 75.559 36.3874 75.559 36.0505V34.4205C75.559 34.0837 75.2859 33.8105 74.949 33.8105Z" fill="#5C9247"/>
<path d="M81.8698 33.8105C81.5398 33.8105 81.2598 34.0805 81.2598 34.4205V36.6605H84.1098V33.8105H81.8698V33.8105Z" fill="#5C9247"/>
<path d="M86.3494 33.8105C86.6794 33.8105 86.9594 34.0805 86.9594 34.4205V36.6605H84.1094V33.8105H86.3494V33.8105Z" fill="#5C9247"/>
<path d="M87.569 36.6608C87.239 36.6608 86.959 36.3908 86.959 36.0508V36.6608H87.569Z" fill="#5C9247"/>
<path d="M15.0996 39.5104C15.4296 39.5104 15.7096 39.2404 15.7096 38.9004V39.5104H15.0996Z" fill="#5C9247"/>
<path d="M18.5592 38.9004V37.2604C18.5592 36.9304 18.2892 36.6504 17.9492 36.6504H16.3092C15.9792 36.6504 15.6992 36.9204 15.6992 37.2604V39.5004H18.5492V38.8904L18.5592 38.9004Z" fill="#5C9247"/>
<path d="M21.4088 37.2702V36.6602H20.7988C21.1288 36.6602 21.4088 36.9302 21.4088 37.2702Z" fill="#5C9247"/>
<path d="M19.1686 39.5104C18.8386 39.5104 18.5586 39.2404 18.5586 38.9004V39.5104H19.1686Z" fill="#5C9247"/>
<path d="M21.4102 38.9002C21.4102 39.2302 21.6802 39.5102 22.0202 39.5102H23.6602C23.9902 39.5102 24.2702 39.2402 24.2702 38.9002V36.6602H21.4202V38.9002H21.4102Z" fill="#5C9247"/>
<path d="M35.6602 38.9002C35.6602 39.2302 35.9302 39.5102 36.2702 39.5102H38.5102V36.6602H35.6602V38.9002Z" fill="#5C9247"/>
<path d="M41.3598 38.9002C41.3598 39.2302 41.0898 39.5102 40.7498 39.5102H38.5098V36.6602H41.3598V38.9002Z" fill="#5C9247"/>
<path d="M41.9694 36.6602H41.3594V37.2702C41.3594 36.9402 41.6294 36.6602 41.9694 36.6602Z" fill="#5C9247"/>
<path d="M44.2096 37.2702V36.6602H43.5996C43.9296 36.6602 44.2096 36.9302 44.2096 37.2702Z" fill="#5C9247"/>
<path d="M44.209 38.9002C44.209 39.2302 44.479 39.5102 44.819 39.5102H46.459C46.789 39.5102 47.069 39.2402 47.069 38.9002V36.6602H44.219V38.9002H44.209Z" fill="#5C9247"/>
<path d="M47.6686 36.6602H47.0586V37.2702C47.0586 36.9402 47.3286 36.6602 47.6686 36.6602Z" fill="#5C9247"/>
<path d="M49.9088 37.2702V36.6602H49.2988C49.6288 36.6602 49.9088 36.9302 49.9088 37.2702Z" fill="#5C9247"/>
<path d="M49.9102 38.9002C49.9102 39.2302 50.1802 39.5102 50.5202 39.5102H52.1602C52.4902 39.5102 52.7702 39.2402 52.7702 38.9002V36.6602H49.9202V38.9002H49.9102Z" fill="#5C9247"/>
<path d="M67.0084 38.9004V37.2604C67.0084 36.9304 66.7384 36.6504 66.3984 36.6504H64.7584C64.4284 36.6504 64.1484 36.9204 64.1484 37.2604V39.5004H66.9984V38.8904L67.0084 38.9004Z" fill="#5C9247"/>
<path d="M72.7096 38.9004V37.2604C72.7096 36.9304 72.4396 36.6504 72.0996 36.6504H70.4596C70.1296 36.6504 69.8496 36.9204 69.8496 37.2604V39.5004H72.6996V38.8904L72.7096 38.9004Z" fill="#5C9247"/>
<path d="M73.319 39.5104C72.989 39.5104 72.709 39.2404 72.709 38.9004V39.5104H73.319Z" fill="#5C9247"/>
<path d="M77.7986 36.6602H76.1686C75.8317 36.6602 75.5586 36.9333 75.5586 37.2702V38.9002C75.5586 39.2371 75.8317 39.5102 76.1686 39.5102H77.7986C78.1355 39.5102 78.4086 39.2371 78.4086 38.9002V37.2702C78.4086 36.9333 78.1355 36.6602 77.7986 36.6602Z" fill="#5C9247"/>
<path d="M81.2598 38.9002C81.2598 39.2302 81.5298 39.5102 81.8698 39.5102H84.1098V36.6602H81.2598V38.9002Z" fill="#5C9247"/>
<path d="M86.9594 36.6602H84.1094V39.5102H86.9594V36.6602Z" fill="#5C9247"/>
<path d="M87.5687 39.5104H89.2087C89.5387 39.5104 89.8187 39.2404 89.8187 38.9004V37.2604C89.8187 36.9304 89.5487 36.6504 89.2087 36.6504H86.9688V39.5004H87.5788L87.5687 39.5104Z" fill="#5C9247"/>
<path d="M12.25 39.5107H10.61C10.28 39.5107 10 39.7807 10 40.1207V41.7607C10 42.0907 10.27 42.3707 10.61 42.3707H12.85V39.5207H12.24L12.25 39.5107Z" fill="#5C9247"/>
<path d="M15.7094 39.5107H12.8594V42.3607H15.7094V39.5107Z" fill="#5C9247"/>
<path d="M18.559 39.5107H15.709V42.3607H18.559V39.5107Z" fill="#5C9247"/>
<path d="M19.1703 42.36H20.8103C21.1403 42.36 21.4203 42.09 21.4203 41.75V40.11C21.4203 39.78 21.1503 39.5 20.8103 39.5H18.5703V42.35H19.1803L19.1703 42.36Z" fill="#5C9247"/>
<path d="M29.3496 39.5107H27.7096C27.3796 39.5107 27.0996 39.7807 27.0996 40.1207V41.7607C27.0996 42.0907 27.3696 42.3707 27.7096 42.3707H29.9496V39.5207H29.3396L29.3496 39.5107Z" fill="#5C9247"/>
<path d="M32.809 39.5107H29.959V42.3607H32.809V39.5107Z" fill="#5C9247"/>
<path d="M33.4203 42.36H35.0603C35.3903 42.36 35.6703 42.09 35.6703 41.75V40.11C35.6703 39.78 35.4003 39.5 35.0603 39.5H32.8203V42.35H33.4303L33.4203 42.36Z" fill="#5C9247"/>
<path d="M55 39.5107H53.36C53.03 39.5107 52.75 39.7807 52.75 40.1207V41.7607C52.75 42.0907 53.02 42.3707 53.36 42.3707H55.6V39.5207H54.99L55 39.5107Z" fill="#5C9247"/>
<path d="M56.2191 42.36H57.8591C58.1891 42.36 58.4691 42.09 58.4691 41.75V40.11C58.4691 39.78 58.1991 39.5 57.8591 39.5H55.6191V42.35H56.2291L56.2191 42.36Z" fill="#5C9247"/>
<path d="M64.1602 41.7507C64.1602 42.0807 64.4302 42.3607 64.7702 42.3607H66.4102C66.7402 42.3607 67.0202 42.0907 67.0202 41.7507V39.5107H64.1702V41.7507H64.1602Z" fill="#5C9247"/>
<path d="M69.8594 41.7507C69.8594 42.0807 70.1294 42.3607 70.4694 42.3607H72.7094V39.5107H69.8594V41.7507Z" fill="#5C9247"/>
<path d="M73.3187 42.36H74.9587C75.2887 42.36 75.5687 42.09 75.5687 41.75V40.11C75.5687 39.78 75.2987 39.5 74.9587 39.5H72.7188V42.35H73.3288L73.3187 42.36Z" fill="#5C9247"/>
<path d="M80.6502 39.5107H79.0202C78.6833 39.5107 78.4102 39.7838 78.4102 40.1207V41.7507C78.4102 42.0876 78.6833 42.3607 79.0202 42.3607H80.6502C80.987 42.3607 81.2602 42.0876 81.2602 41.7507V40.1207C81.2602 39.7838 80.987 39.5107 80.6502 39.5107Z" fill="#5C9247"/>
<path d="M84.11 40.1207V39.5107H83.5C83.83 39.5107 84.11 39.7807 84.11 40.1207Z" fill="#5C9247"/>
<path d="M84.1094 41.7507C84.1094 42.0807 84.3794 42.3607 84.7194 42.3607H86.3594C86.6894 42.3607 86.9694 42.0907 86.9694 41.7507V39.5107H84.1194V41.7507H84.1094Z" fill="#5C9247"/>
<path d="M87.569 39.5107H86.959V40.1207C86.959 39.7907 87.229 39.5107 87.569 39.5107Z" fill="#5C9247"/>
<path d="M92.0486 39.5107H90.4186C90.0817 39.5107 89.8086 39.7838 89.8086 40.1207V41.7507C89.8086 42.0876 90.0817 42.3607 90.4186 42.3607H92.0486C92.3855 42.3607 92.6586 42.0876 92.6586 41.7507V40.1207C92.6586 39.7838 92.3855 39.5107 92.0486 39.5107Z" fill="#5C9247"/>
<path d="M12.25 62.3102C12.58 62.3102 12.86 62.0402 12.86 61.7002V62.3102H12.25Z" fill="#5C9247"/>
<path d="M13.4694 59.46C13.1394 59.46 12.8594 59.73 12.8594 60.07V62.31H15.7094V59.46H13.4694Z" fill="#5C9247"/>
<path d="M18.559 59.46H15.709V62.31H18.559V59.46Z" fill="#5C9247"/>
<path d="M19.1703 62.3102H20.8103C21.1403 62.3102 21.4203 62.0402 21.4203 61.7002V60.0602C21.4203 59.7302 21.1503 59.4502 20.8103 59.4502H18.5703V62.3002H19.1803L19.1703 62.3102Z" fill="#5C9247"/>
<path d="M37.8984 59.46H36.2584C35.9284 59.46 35.6484 59.73 35.6484 60.07V61.71C35.6484 62.04 35.9184 62.32 36.2584 62.32H38.4984V59.47H37.8884L37.8984 59.46Z" fill="#5C9247"/>
<path d="M41.3598 59.46H38.5098V62.31H41.3598V59.46Z" fill="#5C9247"/>
<path d="M41.9691 62.3102H43.6091C43.9391 62.3102 44.2191 62.0402 44.2191 61.7002V60.0602C44.2191 59.7302 43.9491 59.4502 43.6091 59.4502H41.3691V62.3002H41.9791L41.9691 62.3102Z" fill="#5C9247"/>
<path d="M52.1484 59.46H50.5084C50.1784 59.46 49.8984 59.73 49.8984 60.07V61.71C49.8984 62.04 50.1684 62.32 50.5084 62.32H52.7484V59.47H52.1384L52.1484 59.46Z" fill="#5C9247"/>
<path d="M53.3695 62.3102H55.0095C55.3395 62.3102 55.6195 62.0402 55.6195 61.7002V60.0602C55.6195 59.7302 55.3495 59.4502 55.0095 59.4502H52.7695V62.3002H53.3795L53.3695 62.3102Z" fill="#5C9247"/>
<path d="M57.8496 62.3102C58.1796 62.3102 58.4596 62.0402 58.4596 61.7002V62.3102H57.8496Z" fill="#5C9247"/>
<path d="M61.3092 61.7002V60.0602C61.3092 59.7302 61.0392 59.4502 60.6992 59.4502H59.0592C58.7292 59.4502 58.4492 59.7202 58.4492 60.0602V62.3002H61.2992V61.6902L61.3092 61.7002Z" fill="#5C9247"/>
<path d="M67.0084 61.7002V60.0602C67.0084 59.7302 66.7384 59.4502 66.3984 59.4502H64.7584C64.4284 59.4502 64.1484 59.7202 64.1484 60.0602V62.3002H66.9984V61.6902L67.0084 61.7002Z" fill="#5C9247"/>
<path d="M67.6198 62.3102C67.2898 62.3102 67.0098 62.0402 67.0098 61.7002V62.3102H67.6198Z" fill="#5C9247"/>
<path d="M74.9492 62.3102C75.2792 62.3102 75.5592 62.0402 75.5592 61.7002V62.3102H74.9492Z" fill="#5C9247"/>
<path d="M76.1686 59.46C75.8386 59.46 75.5586 59.73 75.5586 60.07V62.31H78.4086V59.46H76.1686Z" fill="#5C9247"/>
<path d="M81.2602 59.46H78.4102V62.31H81.2602V59.46Z" fill="#5C9247"/>
<path d="M83.4998 59.46C83.8298 59.46 84.1098 59.73 84.1098 60.07V62.31H81.2598V59.46H83.4998Z" fill="#5C9247"/>
<path d="M89.1992 59.46H87.5592C87.2292 59.46 86.9492 59.73 86.9492 60.07V61.71C86.9492 62.04 87.2192 62.32 87.5592 62.32H89.7992V59.47H89.1892L89.1992 59.46Z" fill="#5C9247"/>
<path d="M90.4203 62.3102H92.0603C92.3903 62.3102 92.6703 62.0402 92.6703 61.7002V60.0602C92.6703 59.7302 92.4003 59.4502 92.0603 59.4502H89.8203V62.3002H90.4303L90.4203 62.3102Z" fill="#5C9247"/>
<path d="M10.6198 62.3105C10.2898 62.3105 10.0098 62.5805 10.0098 62.9205V65.1605H12.8598V62.3105H10.6198Z" fill="#5C9247"/>
<path d="M15.7094 62.3105H12.8594V65.1605H15.7094V62.3105Z" fill="#5C9247"/>
<path d="M18.559 62.3105H15.709V65.1605H18.559V62.3105Z" fill="#5C9247"/>
<path d="M19.1686 62.3105H18.5586V62.9205C18.5586 62.5905 18.8286 62.3105 19.1686 62.3105Z" fill="#5C9247"/>
<path d="M19.1686 65.1608C18.8386 65.1608 18.5586 64.8908 18.5586 64.5508V65.1608H19.1686Z" fill="#5C9247"/>
<path d="M23.6484 62.3105H22.0084C21.6784 62.3105 21.3984 62.5805 21.3984 62.9205V64.5605C21.3984 64.8905 21.6684 65.1705 22.0084 65.1705H24.2484V62.3205H23.6384L23.6484 62.3105Z" fill="#5C9247"/>
<path d="M27.1098 62.3105H24.2598V65.1605H27.1098V62.3105Z" fill="#5C9247"/>
<path d="M29.9594 62.3105H27.1094V65.1605H29.9594V62.3105Z" fill="#5C9247"/>
<path d="M32.809 62.3105H29.959V65.1605H32.809V62.3105Z" fill="#5C9247"/>
<path d="M35.0486 62.3105C35.3786 62.3105 35.6586 62.5805 35.6586 62.9205V65.1605H32.8086V62.3105H35.0486Z" fill="#5C9247"/>
<path d="M36.2702 65.1608C35.9402 65.1608 35.6602 64.8908 35.6602 64.5508V65.1608H36.2702Z" fill="#5C9247"/>
<path d="M46.4492 62.3105H44.8092C44.4792 62.3105 44.1992 62.5805 44.1992 62.9205V64.5605C44.1992 64.8905 44.4692 65.1705 44.8092 65.1705H47.0492V62.3205H46.4392L46.4492 62.3105Z" fill="#5C9247"/>
<path d="M49.2986 62.3105C49.6286 62.3105 49.9086 62.5805 49.9086 62.9205V65.1605H47.0586V62.3105H49.2986Z" fill="#5C9247"/>
<path d="M56.2194 62.3105C55.8894 62.3105 55.6094 62.5805 55.6094 62.9205V65.1605H58.4594V62.3105H56.2194Z" fill="#5C9247"/>
<path d="M61.309 64.5505C61.309 64.8805 61.039 65.1605 60.699 65.1605H58.459V62.3105H61.309V64.5505Z" fill="#5C9247"/>
<path d="M67.0102 62.3105H64.1602V65.1605H67.0102V62.3105Z" fill="#5C9247"/>
<path d="M69.8598 62.3105H67.0098V65.1605H69.8598V62.3105Z" fill="#5C9247"/>
<path d="M72.7094 62.3105H69.8594V65.1605H72.7094V62.3105Z" fill="#5C9247"/>
<path d="M75.559 62.3105H72.709V65.1605H75.559V62.3105Z" fill="#5C9247"/>
<path d="M78.4086 62.3105H75.5586V65.1605H78.4086V62.3105Z" fill="#5C9247"/>
<path d="M81.2602 62.3105H78.4102V65.1605H81.2602V62.3105Z" fill="#5C9247"/>
<path d="M84.1098 64.5505C84.1098 64.8805 83.8398 65.1605 83.4998 65.1605H81.2598V62.3105H84.1098V64.5505Z" fill="#5C9247"/>
<path d="M12.8598 65.1602H10.0098V68.0102H12.8598V65.1602Z" fill="#5C9247"/>
<path d="M13.4694 65.1602H12.8594V65.7702C12.8594 65.4402 13.1294 65.1602 13.4694 65.1602Z" fill="#5C9247"/>
<path d="M15.7096 65.7702V65.1602H15.0996C15.4296 65.1602 15.7096 65.4302 15.7096 65.7702Z" fill="#5C9247"/>
<path d="M13.4694 68.0104C13.1394 68.0104 12.8594 67.7404 12.8594 67.4004V68.0104H13.4694Z" fill="#5C9247"/>
<path d="M15.709 67.4002C15.709 67.7302 15.979 68.0102 16.319 68.0102H18.559V65.1602H15.709V67.4002Z" fill="#5C9247"/>
<path d="M19.1703 68.0104H20.8103C21.1403 68.0104 21.4203 67.7404 21.4203 67.4004V65.7604C21.4203 65.4304 21.1503 65.1504 20.8103 65.1504H18.5703V68.0004H19.1803L19.1703 68.0104Z" fill="#5C9247"/>
<path d="M24.2584 65.7702V65.1602H23.6484C23.9784 65.1602 24.2584 65.4302 24.2584 65.7702Z" fill="#5C9247"/>
<path d="M23.6484 68.0104C23.9784 68.0104 24.2584 67.7404 24.2584 67.4004V68.0104H23.6484Z" fill="#5C9247"/>
<path d="M27.1098 65.1602H24.2598V68.0102H27.1098V65.1602Z" fill="#5C9247"/>
<path d="M29.9594 65.1602H27.1094V68.0102H29.9594V65.1602Z" fill="#5C9247"/>
<path d="M32.809 65.1602H29.959V68.0102H32.809V65.1602Z" fill="#5C9247"/>
<path d="M35.6586 65.1602H32.8086V68.0102H35.6586V65.1602Z" fill="#5C9247"/>
<path d="M36.2699 68.0104H37.9099C38.2399 68.0104 38.5199 67.7404 38.5199 67.4004V65.7604C38.5199 65.4304 38.2499 65.1504 37.9099 65.1504H35.6699V68.0004H36.2799L36.2699 68.0104Z" fill="#5C9247"/>
<path d="M47.0592 65.7702V65.1602H46.4492C46.7792 65.1602 47.0592 65.4302 47.0592 65.7702Z" fill="#5C9247"/>
<path d="M49.9086 65.1602H47.0586V68.0102H49.9086V65.1602Z" fill="#5C9247"/>
<path d="M55.6094 67.4002C55.6094 67.7302 55.8794 68.0102 56.2194 68.0102H57.8594C58.1894 68.0102 58.4694 67.7402 58.4694 67.4002V65.1602H55.6194V67.4002H55.6094Z" fill="#5C9247"/>
<path d="M59.069 65.1602H58.459V65.7702C58.459 65.4402 58.729 65.1602 59.069 65.1602Z" fill="#5C9247"/>
<path d="M64.1602 67.4002C64.1602 67.7302 64.4302 68.0102 64.7702 68.0102H67.0102V65.1602H64.1602V67.4002V67.4002Z" fill="#5C9247"/>
<path d="M69.8598 65.1602H67.0098V68.0102H69.8598V65.1602Z" fill="#5C9247"/>
<path d="M70.4694 65.1602H69.8594V65.7702C69.8594 65.4402 70.1294 65.1602 70.4694 65.1602Z" fill="#5C9247"/>
<path d="M84.7194 65.1602C84.3894 65.1602 84.1094 65.4302 84.1094 65.7702V68.0102H86.9594V65.1602H84.7194V65.1602Z" fill="#5C9247"/>
<path d="M89.809 65.1602H86.959V68.0102H89.809V65.1602Z" fill="#5C9247"/>
<path d="M92.0486 65.1602C92.3786 65.1602 92.6586 65.4302 92.6586 65.7702V68.0102H89.8086V65.1602H92.0486V65.1602Z" fill="#5C9247"/>
<path d="M10.0098 70.2507C10.0098 70.5807 10.2798 70.8607 10.6198 70.8607H12.8598V68.0107H10.0098V70.2507Z" fill="#5C9247"/>
<path d="M15.0994 68.0107C15.4294 68.0107 15.7094 68.2807 15.7094 68.6207V70.8607H12.8594V68.0107H15.0994Z" fill="#5C9247"/>
<path d="M16.319 70.86C15.989 70.86 15.709 70.59 15.709 70.25V70.86H16.319Z" fill="#5C9247"/>
<path d="M22.0202 68.0107C21.6902 68.0107 21.4102 68.2807 21.4102 68.6207V70.8607H24.2602V68.0107H22.0202V68.0107Z" fill="#5C9247"/>
<path d="M27.1098 68.0107H24.2598V70.8607H27.1098V68.0107Z" fill="#5C9247"/>
<path d="M29.9594 68.0107H27.1094V70.8607H29.9594V68.0107Z" fill="#5C9247"/>
<path d="M32.809 68.0107H29.959V70.8607H32.809V68.0107Z" fill="#5C9247"/>
<path d="M35.6586 68.0107H32.8086V70.8607H35.6586V68.0107Z" fill="#5C9247"/>
<path d="M36.2702 68.0107H35.6602V68.6207C35.6602 68.2907 35.9302 68.0107 36.2702 68.0107Z" fill="#5C9247"/>
<path d="M36.2702 70.86C35.9402 70.86 35.6602 70.59 35.6602 70.25V70.86H36.2702Z" fill="#5C9247"/>
<path d="M47.0586 70.2507C47.0586 70.5807 47.3286 70.8607 47.6686 70.8607H49.3086C49.6386 70.8607 49.9186 70.5907 49.9186 70.2507V68.0107H47.0686V70.2507H47.0586Z" fill="#5C9247"/>
<path d="M57.8496 70.86C58.1796 70.86 58.4596 70.59 58.4596 70.25V70.86H57.8496Z" fill="#5C9247"/>
<path d="M59.069 68.0107C58.739 68.0107 58.459 68.2807 58.459 68.6207V70.8607H61.309V68.0107H59.069Z" fill="#5C9247"/>
<path d="M61.9203 70.86H63.5603C63.8903 70.86 64.1703 70.59 64.1703 70.25V68.61C64.1703 68.28 63.9003 68 63.5603 68H61.3203V70.85H61.9303L61.9203 70.86Z" fill="#5C9247"/>
<path d="M67.0084 68.6207V68.0107H66.3984C66.7284 68.0107 67.0084 68.2807 67.0084 68.6207Z" fill="#5C9247"/>
<path d="M67.0098 70.2507C67.0098 70.5807 67.2798 70.8607 67.6198 70.8607H69.2598C69.5898 70.8607 69.8698 70.5907 69.8698 70.2507V68.0107H67.0198V70.2507H67.0098Z" fill="#5C9247"/>
<path d="M74.9492 68.0107H73.3092C72.9792 68.0107 72.6992 68.2807 72.6992 68.6207V70.2607C72.6992 70.5907 72.9692 70.8707 73.3092 70.8707H75.5492V68.0207H74.9392L74.9492 68.0107Z" fill="#5C9247"/>
<path d="M78.4086 68.0107H75.5586V70.8607H78.4086V68.0107Z" fill="#5C9247"/>
<path d="M79.0199 70.86H80.6599C80.9899 70.86 81.2699 70.59 81.2699 70.25V68.61C81.2699 68.28 80.9999 68 80.6599 68H78.4199V70.85H79.0299L79.0199 70.86Z" fill="#5C9247"/>
<path d="M84.1094 70.2507C84.1094 70.5807 84.3794 70.8607 84.7194 70.8607H86.3594C86.6894 70.8607 86.9694 70.5907 86.9694 70.2507V68.0107H84.1194V70.2507H84.1094Z" fill="#5C9247"/>
<path d="M87.569 68.0107H86.959V68.6207C86.959 68.2907 87.229 68.0107 87.569 68.0107Z" fill="#5C9247"/>
<path d="M89.8092 68.6207V68.0107H89.1992C89.5292 68.0107 89.8092 68.2807 89.8092 68.6207Z" fill="#5C9247"/>
<path d="M89.8086 70.2507C89.8086 70.5807 90.0786 70.8607 90.4186 70.8607H92.0586C92.3886 70.8607 92.6686 70.5907 92.6686 70.2507V68.0107H89.8186V70.2507H89.8086Z" fill="#5C9247"/>
<path d="M12.86 71.4704V70.8604H12.25C12.58 70.8604 12.86 71.1304 12.86 71.4704Z" fill="#5C9247"/>
<path d="M15.7094 70.8604H12.8594V73.7104H15.7094V70.8604Z" fill="#5C9247"/>
<path d="M16.3188 73.7106H17.9588C18.2888 73.7106 18.5687 73.4406 18.5687 73.1006V71.4606C18.5687 71.1306 18.2988 70.8506 17.9588 70.8506H15.7188V73.7006H16.3288L16.3188 73.7106Z" fill="#5C9247"/>
<path d="M20.7988 73.7106C21.1288 73.7106 21.4088 73.4406 21.4088 73.1006V73.7106H20.7988Z" fill="#5C9247"/>
<path d="M24.2602 70.8604H21.4102V73.7104H24.2602V70.8604Z" fill="#5C9247"/>
<path d="M24.8698 70.8604H24.2598V71.4704C24.2598 71.1404 24.5298 70.8604 24.8698 70.8604Z" fill="#5C9247"/>
<path d="M32.8092 71.4704V70.8604H32.1992C32.5292 70.8604 32.8092 71.1304 32.8092 71.4704Z" fill="#5C9247"/>
<path d="M35.6586 70.8604H32.8086V73.7104H35.6586V70.8604Z" fill="#5C9247"/>
<path d="M38.5102 70.8604H35.6602V73.7104H38.5102V70.8604Z" fill="#5C9247"/>
<path d="M40.7498 70.8604C41.0798 70.8604 41.3598 71.1304 41.3598 71.4704V73.7104H38.5098V70.8604H40.7498Z" fill="#5C9247"/>
<path d="M41.9694 73.7106C41.6394 73.7106 41.3594 73.4406 41.3594 73.1006V73.7106H41.9694Z" fill="#5C9247"/>
<path d="M52.1484 73.7106C52.4784 73.7106 52.7584 73.4406 52.7584 73.1006V73.7106H52.1484Z" fill="#5C9247"/>
<path d="M53.3698 70.8604C53.0398 70.8604 52.7598 71.1304 52.7598 71.4704V73.7104H55.6098V70.8604H53.3698Z" fill="#5C9247"/>
<path d="M58.4594 70.8604H55.6094V73.7104H58.4594V70.8604Z" fill="#5C9247"/>
<path d="M61.309 73.1003C61.309 73.4303 61.039 73.7104 60.699 73.7104H58.459V70.8604H61.309V73.1003Z" fill="#5C9247"/>
<path d="M61.9186 70.8604H61.3086V71.4704C61.3086 71.1404 61.5786 70.8604 61.9186 70.8604Z" fill="#5C9247"/>
<path d="M15.7094 73.71H12.8594V76.56H15.7094V73.71Z" fill="#5C9247"/>
<path d="M16.319 73.71H15.709V74.32C15.709 73.99 15.979 73.71 16.319 73.71Z" fill="#5C9247"/>
<path d="M16.319 76.5602C15.989 76.5602 15.709 76.2902 15.709 75.9502V76.5602H16.319Z" fill="#5C9247"/>
<path d="M20.7988 73.71H19.1588C18.8288 73.71 18.5488 73.98 18.5488 74.32V75.96C18.5488 76.29 18.8188 76.57 19.1588 76.57H21.3988V73.72H20.7888L20.7988 73.71Z" fill="#5C9247"/>
<path d="M24.2602 73.71H21.4102V76.56H24.2602V73.71Z" fill="#5C9247"/>
<path d="M29.3494 73.71H27.7194C27.3825 73.71 27.1094 73.9831 27.1094 74.32V75.95C27.1094 76.2869 27.3825 76.56 27.7194 76.56H29.3494C29.6863 76.56 29.9594 76.2869 29.9594 75.95V74.32C29.9594 73.9831 29.6863 73.71 29.3494 73.71Z" fill="#5C9247"/>
<path d="M35.6586 73.71H32.8086V76.56H35.6586V73.71Z" fill="#5C9247"/>
<path d="M38.5102 73.71H35.6602V76.56H38.5102V73.71Z" fill="#5C9247"/>
<path d="M41.3598 73.71H38.5098V76.56H41.3598V73.71Z" fill="#5C9247"/>
<path d="M41.9691 76.5602H43.6091C43.9391 76.5602 44.2191 76.2902 44.2191 75.9502V74.3102C44.2191 73.9802 43.9491 73.7002 43.6091 73.7002H41.3691V76.5502H41.9791L41.9691 76.5602Z" fill="#5C9247"/>
<path d="M49.2988 76.5602C49.6288 76.5602 49.9088 76.2902 49.9088 75.9502V76.5602H49.2988Z" fill="#5C9247"/>
<path d="M50.5202 73.71C50.1902 73.71 49.9102 73.98 49.9102 74.32V76.56H52.7602V73.71H50.5202Z" fill="#5C9247"/>
<path d="M55.6098 73.71H52.7598V76.56H55.6098V73.71Z" fill="#5C9247"/>
<path d="M58.4594 73.71H55.6094V76.56H58.4594V73.71Z" fill="#5C9247"/>
<path d="M59.069 73.71H58.459V74.32C58.459 73.99 58.729 73.71 59.069 73.71Z" fill="#5C9247"/>
<path d="M12.8594 78.8006C12.8594 79.1306 13.1294 79.4106 13.4694 79.4106H15.7094V76.5605H12.8594V78.8006Z" fill="#5C9247"/>
<path d="M17.949 76.5605C18.279 76.5605 18.559 76.8305 18.559 77.1705V79.4106H15.709V76.5605H17.949Z" fill="#5C9247"/>
<path d="M21.4088 77.1705V76.5605H20.7988C21.1288 76.5605 21.4088 76.8305 21.4088 77.1705Z" fill="#5C9247"/>
<path d="M20.7988 79.4108C21.1288 79.4108 21.4088 79.1408 21.4088 78.8008V79.4108H20.7988Z" fill="#5C9247"/>
<path d="M19.1686 79.4108C18.8386 79.4108 18.5586 79.1408 18.5586 78.8008V79.4108H19.1686Z" fill="#5C9247"/>
<path d="M24.2602 76.5605H21.4102V79.4106H24.2602V76.5605Z" fill="#5C9247"/>
<path d="M24.8698 79.4108C24.5398 79.4108 24.2598 79.1408 24.2598 78.8008V79.4108H24.8698Z" fill="#5C9247"/>
<path d="M32.1992 79.4108C32.5292 79.4108 32.8092 79.1408 32.8092 78.8008V79.4108H32.1992Z" fill="#5C9247"/>
<path d="M35.6586 76.5605H32.8086V79.4106H35.6586V76.5605Z" fill="#5C9247"/>
<path d="M36.2702 76.5605H35.6602V77.1705C35.6602 76.8405 35.9302 76.5605 36.2702 76.5605Z" fill="#5C9247"/>
<path d="M38.5084 77.1705V76.5605H37.8984C38.2284 76.5605 38.5084 76.8305 38.5084 77.1705Z" fill="#5C9247"/>
<path d="M36.2702 79.4108C35.9402 79.4108 35.6602 79.1408 35.6602 78.8008V79.4108H36.2702Z" fill="#5C9247"/>
<path d="M38.5098 78.8006C38.5098 79.1306 38.7798 79.4106 39.1198 79.4106H40.7598C41.0898 79.4106 41.3698 79.1406 41.3698 78.8006V76.5605H38.5198V78.8006H38.5098Z" fill="#5C9247"/>
<path d="M41.9694 76.5605H41.3594V77.1705C41.3594 76.8405 41.6294 76.5605 41.9694 76.5605Z" fill="#5C9247"/>
<path d="M47.6686 76.5605C47.3386 76.5605 47.0586 76.8305 47.0586 77.1705V79.4106H49.9086V76.5605H47.6686Z" fill="#5C9247"/>
<path d="M52.7602 78.8006C52.7602 79.1306 52.4902 79.4106 52.1502 79.4106H49.9102V76.5605H52.7602V78.8006Z" fill="#5C9247"/>
<path d="M53.3698 76.5605H52.7598V77.1705C52.7598 76.8405 53.0298 76.5605 53.3698 76.5605Z" fill="#5C9247"/>
<path d="M55.61 77.1705V76.5605H55C55.33 76.5605 55.61 76.8305 55.61 77.1705Z" fill="#5C9247"/>
<path d="M55 79.4108C55.33 79.4108 55.61 79.1408 55.61 78.8008V79.4108H55Z" fill="#5C9247"/>
<path d="M58.4594 76.5605H55.6094V79.4106H58.4594V76.5605Z" fill="#5C9247"/>
<path d="M59.069 79.4108C58.739 79.4108 58.459 79.1408 58.459 78.8008V79.4108H59.069Z" fill="#5C9247"/>
<path d="M63.5486 76.5605H61.9186C61.5817 76.5605 61.3086 76.8337 61.3086 77.1705V78.8006C61.3086 79.1374 61.5817 79.4106 61.9186 79.4106H63.5486C63.8855 79.4106 64.1586 79.1374 64.1586 78.8006V77.1705C64.1586 76.8337 63.8855 76.5605 63.5486 76.5605Z" fill="#5C9247"/>
<path d="M12.86 81.6504V80.0104C12.86 79.6804 12.59 79.4004 12.25 79.4004H10.61C10.28 79.4004 10 79.6704 10 80.0104V82.2504H12.85V81.6404L12.86 81.6504Z" fill="#5C9247"/>
<path d="M15.7096 80.0202V79.4102H15.0996C15.4296 79.4102 15.7096 79.6802 15.7096 80.0202Z" fill="#5C9247"/>
<path d="M15.0996 82.2604C15.4296 82.2604 15.7096 81.9904 15.7096 81.6504V82.2604H15.0996Z" fill="#5C9247"/>
<path d="M13.4694 82.2604C13.1394 82.2604 12.8594 81.9904 12.8594 81.6504V82.2604H13.4694Z" fill="#5C9247"/>
<path d="M18.559 79.4102H15.709V82.2602H18.559V79.4102Z" fill="#5C9247"/>
<path d="M21.4086 79.4102H18.5586V82.2602H21.4086V79.4102Z" fill="#5C9247"/>
<path d="M24.2602 79.4102H21.4102V82.2602H24.2602V79.4102Z" fill="#5C9247"/>
<path d="M27.1098 79.4102H24.2598V82.2602H27.1098V79.4102Z" fill="#5C9247"/>
<path d="M29.9594 79.4102H27.1094V82.2602H29.9594V79.4102Z" fill="#5C9247"/>
<path d="M32.809 79.4102H29.959V82.2602H32.809V79.4102Z" fill="#5C9247"/>
<path d="M35.6586 79.4102H32.8086V82.2602H35.6586V79.4102Z" fill="#5C9247"/>
<path d="M36.2699 82.2604H37.9099C38.2399 82.2604 38.5199 81.9904 38.5199 81.6504V80.0104C38.5199 79.6804 38.2499 79.4004 37.9099 79.4004H35.6699V82.2504H36.2799L36.2699 82.2604Z" fill="#5C9247"/>
<path d="M47.0586 81.6502C47.0586 81.9802 47.3286 82.2602 47.6686 82.2602H49.3086C49.6386 82.2602 49.9186 81.9902 49.9186 81.6502V79.4102H47.0686V81.6502H47.0586Z" fill="#5C9247"/>
<path d="M50.5202 79.4102H49.9102V80.0202C49.9102 79.6902 50.1802 79.4102 50.5202 79.4102Z" fill="#5C9247"/>
<path d="M55 79.4102H53.36C53.03 79.4102 52.75 79.6802 52.75 80.0202V81.6602C52.75 81.9902 53.02 82.2702 53.36 82.2702H55.6V79.4202H54.99L55 79.4102Z" fill="#5C9247"/>
<path d="M58.4594 79.4102H55.6094V82.2602H58.4594V79.4102Z" fill="#5C9247"/>
<path d="M60.699 79.4102C61.029 79.4102 61.309 79.6802 61.309 80.0202V82.2602H58.459V79.4102H60.699Z" fill="#5C9247"/>
<path d="M66.4002 79.4102H64.7702C64.4333 79.4102 64.1602 79.6833 64.1602 80.0202V81.6502C64.1602 81.987 64.4333 82.2602 64.7702 82.2602H66.4002C66.7371 82.2602 67.0102 81.987 67.0102 81.6502V80.0202C67.0102 79.6833 66.7371 79.4102 66.4002 79.4102Z" fill="#5C9247"/>
<path d="M12.8598 82.2607H10.0098V85.1107H12.8598V82.2607Z" fill="#5C9247"/>
<path d="M15.7094 82.2607H12.8594V85.1107H15.7094V82.2607Z" fill="#5C9247"/>
<path d="M18.559 82.2607H15.709V85.1107H18.559V82.2607Z" fill="#5C9247"/>
<path d="M19.1686 82.2607H18.5586V82.8707C18.5586 82.5407 18.8286 82.2607 19.1686 82.2607Z" fill="#5C9247"/>
<path d="M21.4088 82.8707V82.2607H20.7988C21.1288 82.2607 21.4088 82.5307 21.4088 82.8707Z" fill="#5C9247"/>
<path d="M20.7988 85.11C21.1288 85.11 21.4088 84.84 21.4088 84.5V85.11H20.7988Z" fill="#5C9247"/>
<path d="M19.1686 85.11C18.8386 85.11 18.5586 84.84 18.5586 84.5V85.11H19.1686Z" fill="#5C9247"/>
<path d="M24.2602 82.2607H21.4102V85.1107H24.2602V82.2607Z" fill="#5C9247"/>
<path d="M27.1098 82.2607H24.2598V85.1107H27.1098V82.2607Z" fill="#5C9247"/>
<path d="M29.9594 82.2607H27.1094V85.1107H29.9594V82.2607Z" fill="#5C9247"/>
<path d="M32.809 82.2607H29.959V85.1107H32.809V82.2607Z" fill="#5C9247"/>
<path d="M35.6586 84.5007C35.6586 84.8307 35.3886 85.1107 35.0486 85.1107H32.8086V82.2607H35.6586V84.5007Z" fill="#5C9247"/>
<path d="M36.2702 82.2607H35.6602V82.8707C35.6602 82.5407 35.9302 82.2607 36.2702 82.2607Z" fill="#5C9247"/>
<path d="M40.75 82.2607H39.11C38.78 82.2607 38.5 82.5307 38.5 82.8707V84.5107C38.5 84.8407 38.77 85.1207 39.11 85.1207H41.35V82.2707H40.74L40.75 82.2607Z" fill="#5C9247"/>
<path d="M41.9691 85.11H43.6091C43.9391 85.11 44.2191 84.84 44.2191 84.5V82.86C44.2191 82.53 43.9491 82.25 43.6091 82.25H41.3691V85.1H41.9791L41.9691 85.11Z" fill="#5C9247"/>
<path d="M52.7584 84.5V82.86C52.7584 82.53 52.4884 82.25 52.1484 82.25H50.5084C50.1784 82.25 49.8984 82.52 49.8984 82.86V85.1H52.7484V84.49L52.7584 84.5Z" fill="#5C9247"/>
<path d="M55.61 82.8707V82.2607H55C55.33 82.2607 55.61 82.5307 55.61 82.8707Z" fill="#5C9247"/>
<path d="M53.3698 85.11C53.0398 85.11 52.7598 84.84 52.7598 84.5V85.11H53.3698Z" fill="#5C9247"/>
<path d="M55.6094 84.5007C55.6094 84.8307 55.8794 85.1107 56.2194 85.1107H58.4594V82.2607H55.6094V84.5007Z" fill="#5C9247"/>
<path d="M61.309 82.2607H58.459V85.1107H61.309V82.2607Z" fill="#5C9247"/>
<path d="M66.3984 85.11C66.7284 85.11 67.0084 84.84 67.0084 84.5V85.11H66.3984Z" fill="#5C9247"/>
<path d="M69.86 84.5V82.86C69.86 82.53 69.59 82.25 69.25 82.25H67.61C67.28 82.25 67 82.52 67 82.86V85.1H69.85V84.49L69.86 84.5Z" fill="#5C9247"/>
<path d="M10.0098 87.3503C10.0098 87.6803 10.2798 87.9604 10.6198 87.9604H12.8598V85.1104H10.0098V87.3503Z" fill="#5C9247"/>
<path d="M15.7094 85.1104H12.8594V87.9604H15.7094V85.1104Z" fill="#5C9247"/>
<path d="M18.559 85.1104H15.709V87.9604H18.559V85.1104Z" fill="#5C9247"/>
<path d="M21.4086 85.1104H18.5586V87.9604H21.4086V85.1104Z" fill="#5C9247"/>
<path d="M24.2602 87.3503C24.2602 87.6803 23.9902 87.9604 23.6502 87.9604H21.4102V85.1104H24.2602V87.3503Z" fill="#5C9247"/>
<path d="M24.8698 85.1104H24.2598V85.7204C24.2598 85.3904 24.5298 85.1104 24.8698 85.1104Z" fill="#5C9247"/>
<path d="M29.9596 85.7204V85.1104H29.3496C29.6796 85.1104 29.9596 85.3804 29.9596 85.7204Z" fill="#5C9247"/>
<path d="M29.3496 87.9606C29.6796 87.9606 29.9596 87.6906 29.9596 87.3506V87.9606H29.3496Z" fill="#5C9247"/>
<path d="M32.809 85.1104H29.959V87.9604H32.809V85.1104Z" fill="#5C9247"/>
<path d="M33.4186 85.1104H32.8086V85.7204C32.8086 85.3904 33.0786 85.1104 33.4186 85.1104Z" fill="#5C9247"/>
<path d="M33.4186 87.9606C33.0886 87.9606 32.8086 87.6906 32.8086 87.3506V87.9606H33.4186Z" fill="#5C9247"/>
<path d="M37.9002 85.1104H36.2702C35.9333 85.1104 35.6602 85.3835 35.6602 85.7204V87.3503C35.6602 87.6872 35.9333 87.9604 36.2702 87.9604H37.9002C38.2371 87.9604 38.5102 87.6872 38.5102 87.3503V85.7204C38.5102 85.3835 38.2371 85.1104 37.9002 85.1104Z" fill="#5C9247"/>
<path d="M46.449 85.1104H44.819C44.4821 85.1104 44.209 85.3835 44.209 85.7204V87.3503C44.209 87.6872 44.4821 87.9604 44.819 87.9604H46.449C46.7859 87.9604 47.059 87.6872 47.059 87.3503V85.7204C47.059 85.3835 46.7859 85.1104 46.449 85.1104Z" fill="#5C9247"/>
<path d="M49.9102 87.3503C49.9102 87.6803 50.1802 87.9604 50.5202 87.9604H52.7602V85.1104H49.9102V87.3503Z" fill="#5C9247"/>
<path d="M54.9998 85.1104C55.3298 85.1104 55.6098 85.3804 55.6098 85.7204V87.9604H52.7598V85.1104H54.9998Z" fill="#5C9247"/>
<path d="M58.4596 85.7204V85.1104H57.8496C58.1796 85.1104 58.4596 85.3804 58.4596 85.7204Z" fill="#5C9247"/>
<path d="M57.8496 87.9606C58.1796 87.9606 58.4596 87.6906 58.4596 87.3506V87.9606H57.8496Z" fill="#5C9247"/>
<path d="M56.2194 87.9606C55.8894 87.9606 55.6094 87.6906 55.6094 87.3506V87.9606H56.2194Z" fill="#5C9247"/>
<path d="M61.309 85.1104H58.459V87.9604H61.309V85.1104Z" fill="#5C9247"/>
<path d="M66.3984 85.1104H64.7584C64.4284 85.1104 64.1484 85.3804 64.1484 85.7204V87.3604C64.1484 87.6904 64.4184 87.9704 64.7584 87.9704H66.9984V85.1204H66.3884L66.3984 85.1104Z" fill="#5C9247"/>
<path d="M69.8598 87.3503C69.8598 87.6803 69.5898 87.9604 69.2498 87.9604H67.0098V85.1104H69.8598V87.3503Z" fill="#5C9247"/>
<path d="M12.86 88.57V87.96H12.25C12.58 87.96 12.86 88.23 12.86 88.57Z" fill="#5C9247"/>
<path d="M12.8594 90.2C12.8594 90.53 13.1294 90.81 13.4694 90.81H15.7094V87.96H12.8594V90.2Z" fill="#5C9247"/>
<path d="M18.559 87.96H15.709V90.81H18.559V87.96Z" fill="#5C9247"/>
<path d="M21.4086 90.2C21.4086 90.53 21.1386 90.81 20.7986 90.81H18.5586V87.96H21.4086V90.2V90.2Z" fill="#5C9247"/>
<path d="M22.0202 87.96H21.4102V88.57C21.4102 88.24 21.6802 87.96 22.0202 87.96Z" fill="#5C9247"/>
<path d="M29.3496 87.96H27.7096C27.3796 87.96 27.0996 88.23 27.0996 88.57V90.21C27.0996 90.54 27.3696 90.82 27.7096 90.82H29.9496V87.97H29.3396L29.3496 87.96Z" fill="#5C9247"/>
<path d="M32.809 87.96H29.959V90.81H32.809V87.96Z" fill="#5C9247"/>
<path d="M33.4203 90.8102H35.0603C35.3903 90.8102 35.6703 90.5402 35.6703 90.2002V88.5602C35.6703 88.2302 35.4003 87.9502 35.0603 87.9502H32.8203V90.8002H33.4303L33.4203 90.8102Z" fill="#5C9247"/>
<path d="M52.7584 88.57V87.96H52.1484C52.4784 87.96 52.7584 88.23 52.7584 88.57Z" fill="#5C9247"/>
<path d="M55.6098 87.96H52.7598V90.81H55.6098V87.96Z" fill="#5C9247"/>
<path d="M58.4594 87.96H55.6094V90.81H58.4594V87.96Z" fill="#5C9247"/>
<path d="M61.309 87.96H58.459V90.81H61.309V87.96Z" fill="#5C9247"/>
<path d="M15.7096 91.4205V90.8105H15.0996C15.4296 90.8105 15.7096 91.0805 15.7096 91.4205Z" fill="#5C9247"/>
<path d="M15.709 93.0506C15.709 93.3806 15.979 93.6606 16.319 93.6606H17.959C18.289 93.6606 18.569 93.3906 18.569 93.0506V90.8105H15.719V93.0506H15.709Z" fill="#5C9247"/>
<path d="M19.1686 90.8105H18.5586V91.4205C18.5586 91.0905 18.8286 90.8105 19.1686 90.8105Z" fill="#5C9247"/>
<path d="M23.6502 90.8105H22.0202C21.6833 90.8105 21.4102 91.0837 21.4102 91.4205V93.0506C21.4102 93.3874 21.6833 93.6606 22.0202 93.6606H23.6502C23.9871 93.6606 24.2602 93.3874 24.2602 93.0506V91.4205C24.2602 91.0837 23.9871 90.8105 23.6502 90.8105Z" fill="#5C9247"/>
<path d="M37.8984 90.8105H36.2584C35.9284 90.8105 35.6484 91.0805 35.6484 91.4205V93.0605C35.6484 93.3905 35.9184 93.6705 36.2584 93.6705H38.4984V90.8205H37.8884L37.8984 90.8105Z" fill="#5C9247"/>
<path d="M41.3598 90.8105H38.5098V93.6606H41.3598V90.8105Z" fill="#5C9247"/>
<path d="M41.9691 93.6608H43.6091C43.9391 93.6608 44.2191 93.3908 44.2191 93.0508V91.4108C44.2191 91.0808 43.9491 90.8008 43.6091 90.8008H41.3691V93.6508H41.9791L41.9691 93.6608Z" fill="#5C9247"/>
<path d="M52.7598 93.0506C52.7598 93.3806 53.0298 93.6606 53.3698 93.6606H55.6098V90.8105H52.7598V93.0506Z" fill="#5C9247"/>
<path d="M58.4594 90.8105H55.6094V93.6606H58.4594V90.8105Z" fill="#5C9247"/>
<path d="M61.309 93.0506C61.309 93.3806 61.039 93.6606 60.699 93.6606H58.459V90.8105H61.309V93.0506Z" fill="#5C9247"/>
<path d="M73.3092 11.01C72.9792 11.01 72.6992 11.28 72.6992 11.62V30.36C72.6992 30.69 72.9692 30.97 73.3092 30.97H92.0492C92.3792 30.97 92.6592 30.7 92.6592 30.36V11.61C92.6592 11.28 92.3892 11 92.0492 11H73.3092V11.01ZM89.8092 16.71V27.76C89.8092 27.95 89.6492 28.11 89.4592 28.11H75.9092C75.7192 28.11 75.5592 27.95 75.5592 27.76V14.21C75.5592 14.02 75.7192 13.86 75.9092 13.86H89.4592C89.6492 13.86 89.8092 14.02 89.8092 14.21V16.71V16.71Z" fill="#5C9247"/>
<path d="M86.9584 22.4102V17.3102C86.9584 16.9802 86.6884 16.7002 86.3484 16.7002H79.0084C78.6784 16.7002 78.3984 16.9702 78.3984 17.3102V24.6502C78.3984 24.9802 78.6684 25.2602 79.0084 25.2602H86.3484C86.6784 25.2602 86.9584 24.9902 86.9584 24.6502V22.4002V22.4102Z" fill="#5C9247"/>
<path d="M73.3092 73.71C72.9792 73.71 72.6992 73.98 72.6992 74.32V93.06C72.6992 93.39 72.9692 93.67 73.3092 93.67H92.0492C92.3792 93.67 92.6592 93.4 92.6592 93.06V74.32C92.6592 73.99 92.3892 73.71 92.0492 73.71H73.3092ZM89.8092 79.41V90.46C89.8092 90.65 89.6492 90.81 89.4592 90.81H75.9092C75.7192 90.81 75.5592 90.65 75.5592 90.46V76.91C75.5592 76.72 75.7192 76.56 75.9092 76.56H89.4592C89.6492 76.56 89.8092 76.72 89.8092 76.91V79.41Z" fill="#5C9247"/>
<path d="M86.9584 85.1104V80.0104C86.9584 79.6804 86.6884 79.4004 86.3484 79.4004H79.0084C78.6784 79.4004 78.3984 79.6704 78.3984 80.0104V87.3504C78.3984 87.6804 78.6684 87.9604 79.0084 87.9604H86.3484C86.6784 87.9604 86.9584 87.6904 86.9584 87.3504V85.1004V85.1104Z" fill="#5C9247"/>
<path d="M10.61 11.01C10.28 11.01 10 11.28 10 11.62V30.36C10 30.69 10.27 30.97 10.61 30.97H29.36C29.69 30.97 29.97 30.7 29.97 30.36V11.61C29.97 11.28 29.7 11 29.36 11H10.62L10.61 11.01ZM27.11 16.71V27.76C27.11 27.95 26.95 28.11 26.76 28.11H13.21C13.02 28.11 12.86 27.95 12.86 27.76V14.21C12.86 14.02 13.02 13.86 13.21 13.86H26.76C26.95 13.86 27.11 14.02 27.11 14.21V16.71V16.71Z" fill="#5C9247"/>
<path d="M24.2592 22.4102V17.3102C24.2592 16.9802 23.9892 16.7002 23.6492 16.7002H16.3092C15.9792 16.7002 15.6992 16.9702 15.6992 17.3102V24.6502C15.6992 24.9802 15.9692 25.2602 16.3092 25.2602H23.6492C23.9792 25.2602 24.2592 24.9902 24.2592 24.6502V22.4002V22.4102Z" fill="#5C9247"/>
<path d="M54.4108 55.1367C54.6449 55.1367 54.8696 55.1135 55.085 55.0672C55.3003 55.0209 55.5156 54.9654 55.731 54.9005V56.4425C55.5063 56.5351 55.2254 56.6138 54.8883 56.6787C54.5606 56.7528 54.2002 56.7898 53.8069 56.7898C53.3481 56.7898 52.9362 56.7157 52.571 56.5675C52.2152 56.4194 51.9297 56.1647 51.7143 55.8035C51.5083 55.4331 51.4053 54.9237 51.4053 54.2754V50.6219H50.4082V49.7468L51.5598 49.0522L52.1637 47.4546H53.4979V49.0661H55.6467V50.6219H53.4979V54.2754C53.4979 54.5625 53.5822 54.7801 53.7507 54.9283C53.9193 55.0672 54.1393 55.1367 54.4108 55.1367Z" fill="#5C9247"/>
<path d="M63.253 52.8446C63.253 53.4743 63.1641 54.0346 62.9862 54.5255C62.8177 55.0163 62.5695 55.4331 62.2418 55.7757C61.9235 56.1091 61.5349 56.3638 61.0762 56.5398C60.6174 56.7065 60.0977 56.7898 59.5172 56.7898C58.9836 56.7898 58.4873 56.7065 58.0285 56.5398C57.5791 56.3638 57.1906 56.1091 56.8629 55.7757C56.5352 55.4331 56.2777 55.0163 56.0904 54.5255C55.9125 54.0346 55.8236 53.4743 55.8236 52.8446C55.8236 52.0018 55.9734 51.2934 56.273 50.7192C56.5726 50.1357 57.0033 49.6912 57.5651 49.3856C58.1269 49.08 58.7916 48.9272 59.5594 48.9272C60.2803 48.9272 60.917 49.08 61.4694 49.3856C62.0218 49.6912 62.4572 50.1357 62.7755 50.7192C63.0939 51.2934 63.253 52.0018 63.253 52.8446ZM57.9583 52.8446C57.9583 53.3447 58.0098 53.7661 58.1128 54.1087C58.2252 54.4421 58.3984 54.6968 58.6325 54.8728C58.8665 55.0395 59.1708 55.1228 59.5453 55.1228C59.9198 55.1228 60.2195 55.0395 60.4442 54.8728C60.6782 54.6968 60.8468 54.4421 60.9498 54.1087C61.0621 53.7661 61.1183 53.3447 61.1183 52.8446C61.1183 52.3445 61.0621 51.9277 60.9498 51.5943C60.8468 51.2609 60.6782 51.0109 60.4442 50.8442C60.2101 50.6775 59.9058 50.5941 59.5313 50.5941C58.9789 50.5941 58.5763 50.784 58.3235 51.1637C58.08 51.5341 57.9583 52.0944 57.9583 52.8446Z" fill="#5C9247"/>
<path d="M70.9653 52.8446C70.9653 53.4743 70.8764 54.0346 70.6985 54.5255C70.5299 55.0163 70.2818 55.4331 69.9541 55.7757C69.6358 56.1091 69.2472 56.3638 68.7885 56.5398C68.3297 56.7065 67.81 56.7898 67.2295 56.7898C66.6959 56.7898 66.1996 56.7065 65.7408 56.5398C65.2914 56.3638 64.9029 56.1091 64.5752 55.7757C64.2475 55.4331 63.99 55.0163 63.8027 54.5255C63.6248 54.0346 63.5359 53.4743 63.5359 52.8446C63.5359 52.0018 63.6857 51.2934 63.9853 50.7192C64.2849 50.1357 64.7156 49.6912 65.2774 49.3856C65.8391 49.08 66.5039 48.9272 67.2717 48.9272C67.9926 48.9272 68.6293 49.08 69.1817 49.3856C69.7341 49.6912 70.1695 50.1357 70.4878 50.7192C70.8061 51.2934 70.9653 52.0018 70.9653 52.8446ZM65.6706 52.8446C65.6706 53.3447 65.7221 53.7661 65.8251 54.1087C65.9375 54.4421 66.1107 54.6968 66.3447 54.8728C66.5788 55.0395 66.8831 55.1228 67.2576 55.1228C67.6321 55.1228 67.9317 55.0395 68.1565 54.8728C68.3905 54.6968 68.5591 54.4421 68.662 54.1087C68.7744 53.7661 68.8306 53.3447 68.8306 52.8446C68.8306 52.3445 68.7744 51.9277 68.662 51.5943C68.5591 51.2609 68.3905 51.0109 68.1565 50.8442C67.9224 50.6775 67.6181 50.5941 67.2436 50.5941C66.6912 50.5941 66.2886 50.784 66.0358 51.1637C65.7923 51.5341 65.6706 52.0944 65.6706 52.8446Z" fill="#5C9247"/>
<path d="M73.8042 56.6509H71.7116V46.0933H73.8042V56.6509Z" fill="#5C9247"/>
<path d="M80.3585 54.4004C80.3585 54.9098 80.2368 55.3451 79.9934 55.7063C79.7499 56.0582 79.3848 56.3267 78.8979 56.512C78.4111 56.6972 77.8071 56.7898 77.0862 56.7898C76.5525 56.7898 76.0937 56.7528 75.7099 56.6787C75.326 56.6138 74.9421 56.5027 74.5582 56.3453V54.6366C74.9702 54.8218 75.4149 54.9746 75.8924 55.095C76.3699 55.2154 76.7913 55.2756 77.1564 55.2756C77.5684 55.2756 77.8586 55.2154 78.0272 55.095C78.2051 54.9746 78.294 54.8172 78.294 54.6227C78.294 54.4931 78.2566 54.3773 78.1817 54.2754C78.1161 54.1735 77.9663 54.0578 77.7322 53.9281C77.4982 53.7985 77.133 53.6318 76.6368 53.428C76.1593 53.2243 75.766 53.0252 75.4571 52.8307C75.1481 52.6269 74.9187 52.3862 74.7689 52.1083C74.6191 51.8212 74.5442 51.4647 74.5442 51.0387C74.5442 50.3348 74.8204 49.807 75.3728 49.455C75.9252 49.1031 76.6602 48.9272 77.5778 48.9272C78.0553 48.9272 78.5094 48.9735 78.9401 49.0661C79.3707 49.1587 79.8155 49.3115 80.2743 49.5245L79.6423 51.0109C79.3895 50.8998 79.146 50.8025 78.912 50.7192C78.6779 50.6358 78.4485 50.571 78.2238 50.5247C78.0085 50.4784 77.7837 50.4552 77.5497 50.4552C77.2407 50.4552 77.0066 50.4969 76.8475 50.5803C76.6976 50.6636 76.6227 50.7886 76.6227 50.9553C76.6227 51.0757 76.6602 51.1869 76.7351 51.2887C76.8194 51.3813 76.9739 51.4832 77.1986 51.5943C77.4326 51.7055 77.7744 51.8536 78.2238 52.0389C78.6639 52.2148 79.043 52.4001 79.3614 52.5945C79.6797 52.7798 79.9232 53.0159 80.0917 53.303C80.2696 53.5808 80.3585 53.9467 80.3585 54.4004Z" fill="#5C9247"/>
<path d="M26.3116 44.4043H29.4774L34.4204 56.7898H30.9862L30.1531 54.4909H25.6452L24.8121 56.7898H21.3594L26.3116 44.4043ZM26.7189 51.6479H29.0794L27.913 48.3264H27.8853L26.7189 51.6479Z" fill="#126A3A" fill-opacity="0.63"/>
<path d="M36.2901 44.291C37.0553 44.291 37.7317 44.3771 38.3194 44.5491C38.9132 44.7151 39.3907 44.8933 39.7519 45.0838C40.1131 45.2682 40.3334 45.3911 40.413 45.4525L38.8887 48.0337C38.7908 47.9538 38.6224 47.8462 38.3837 47.711C38.1449 47.5758 37.8695 47.456 37.5573 47.3515C37.2512 47.2409 36.9451 47.1856 36.639 47.1856C36.2472 47.1856 35.9258 47.2501 35.6748 47.3792C35.43 47.5021 35.3075 47.6956 35.3075 47.9599C35.3075 48.1443 35.3749 48.3102 35.5096 48.4577C35.6442 48.6052 35.8585 48.7527 36.1523 48.9002C36.4523 49.0477 36.8471 49.2075 37.3369 49.3795C37.796 49.5393 38.2215 49.7329 38.6132 49.9603C39.0112 50.1877 39.357 50.4581 39.6509 50.7715C39.9447 51.0849 40.1743 51.4444 40.3396 51.85C40.511 52.2556 40.5967 52.7135 40.5967 53.2236C40.5967 53.875 40.462 54.4342 40.1926 54.9013C39.9294 55.3622 39.5713 55.7402 39.1183 56.0352C38.6714 56.3301 38.1664 56.5483 37.6032 56.6897C37.04 56.831 36.4645 56.9017 35.8769 56.9017C35.0076 56.9017 34.2301 56.8064 33.5445 56.6159C32.865 56.4193 32.314 56.2072 31.8916 55.9798C31.4754 55.7525 31.2244 55.5957 31.1387 55.5097L32.7089 52.8272C32.7762 52.8825 32.9201 52.9716 33.1405 53.0945C33.3608 53.2174 33.6241 53.3465 33.9302 53.4817C34.2424 53.6169 34.5699 53.7306 34.9127 53.8228C35.2555 53.9149 35.5799 53.961 35.886 53.961C36.3513 53.961 36.6972 53.8842 36.9237 53.7306C37.1502 53.5708 37.2634 53.3526 37.2634 53.0761C37.2634 52.8733 37.193 52.692 37.0522 52.5322C36.9114 52.3663 36.6819 52.2034 36.3635 52.0436C36.0452 51.8777 35.6197 51.6933 35.0872 51.4905C34.5607 51.2877 34.0648 51.0358 33.5996 50.7346C33.1405 50.4273 32.764 50.034 32.4701 49.5547C32.1824 49.0753 32.0386 48.4792 32.0386 47.7663C32.0386 47.0473 32.2375 46.4297 32.6354 45.9134C33.0395 45.3911 33.5659 44.9916 34.2148 44.7151C34.8637 44.4324 35.5555 44.291 36.2901 44.291Z" fill="#5C9247" fill-opacity="0.84"/>
<path d="M40.8248 50.5871C40.8248 51.2017 40.9483 51.7609 41.1954 52.2649C41.4487 52.7627 41.8009 53.159 42.2519 53.454C42.7028 53.749 43.2279 53.8965 43.8272 53.8965C44.4264 53.8965 44.9516 53.749 45.4025 53.454C45.8535 53.159 46.2026 52.7627 46.4497 52.2649C46.703 51.7609 46.8296 51.2017 46.8296 50.5871C46.8296 49.9726 46.703 49.4164 46.4497 48.9186C46.2026 48.4208 45.8535 48.0244 45.4025 47.7294C44.9516 47.4283 44.4264 47.2778 43.8272 47.2778C43.2279 47.2778 42.7028 47.4283 42.2519 47.7294C41.8009 48.0244 41.4487 48.4208 41.1954 48.9186C40.9483 49.4164 40.8248 49.9726 40.8248 50.5871ZM37.4609 50.5871C37.4609 49.7022 37.6216 48.8787 37.9428 48.1166C38.2641 47.3484 38.7119 46.6786 39.2865 46.107C39.861 45.5355 40.5344 45.0899 41.3066 44.7704C42.085 44.4508 42.9252 44.291 43.8272 44.291C44.7415 44.291 45.5848 44.4508 46.357 44.7704C47.1293 45.0899 47.8026 45.5355 48.3772 46.107C48.9517 46.6786 49.3965 47.3484 49.7116 48.1166C50.0267 48.8787 50.1842 49.7022 50.1842 50.5871C50.1842 51.4782 50.0297 52.3079 49.7209 53.0761C49.412 53.8381 48.9733 54.508 48.405 55.0857C47.8428 55.6572 47.1725 56.1028 46.3941 56.4223C45.6157 56.7419 44.7601 56.9017 43.8272 56.9017C42.8635 56.9017 41.9924 56.7419 41.214 56.4223C40.4356 56.1028 39.7653 55.6572 39.2031 55.0857C38.6471 54.508 38.2177 53.8381 37.915 53.0761C37.6123 52.3079 37.4609 51.4782 37.4609 50.5871Z" fill="#8EC543" fill-opacity="0.72"/>
</svg>
