<svg width="100" height="100" viewBox="0 0 100 100" fill="none" xmlns="http://www.w3.org/2000/svg">
<g clip-path="url(#clip0_2598_255)">
<path d="M80 0H20C8.95431 0 0 8.9543 0 20V80C0 91.0457 8.9543 100 20 100H80C91.0457 100 100 91.0457 100 80V20C100 8.95431 91.0457 0 80 0Z" fill="white"/>
<path d="M32.0592 8.6499C31.7292 8.6499 31.4492 8.9199 31.4492 9.2599V11.4999H34.2992V8.6499H32.0592Z" fill="#5C9247"/>
<path d="M37.1508 8.6499H34.3008V11.4999H37.1508V8.6499Z" fill="#5C9247"/>
<path d="M40.0004 8.6499H37.1504V11.4999H40.0004V8.6499Z" fill="#5C9247"/>
<path d="M40.6098 11.5001H42.2498C42.5798 11.5001 42.8598 11.2301 42.8598 10.8901V9.25014C42.8598 8.92014 42.5898 8.64014 42.2498 8.64014H40.0098V11.4901H40.6198L40.6098 11.5001Z" fill="#5C9247"/>
<path d="M50.7908 8.6499H49.1608C48.8239 8.6499 48.5508 8.92301 48.5508 9.2599V10.8899C48.5508 11.2268 48.8239 11.4999 49.1608 11.4999H50.7908C51.1277 11.4999 51.4008 11.2268 51.4008 10.8899V9.2599C51.4008 8.92301 51.1277 8.6499 50.7908 8.6499Z" fill="#5C9247"/>
<path d="M56.49 8.6499H54.86C54.5231 8.6499 54.25 8.92301 54.25 9.2599V10.8899C54.25 11.2268 54.5231 11.4999 54.86 11.4999H56.49C56.8269 11.4999 57.1 11.2268 57.1 10.8899V9.2599C57.1 8.92301 56.8269 8.6499 56.49 8.6499Z" fill="#5C9247"/>
<path d="M65.0408 8.6499H63.4108C63.0739 8.6499 62.8008 8.92301 62.8008 9.2599V10.8899C62.8008 11.2268 63.0739 11.4999 63.4108 11.4999H65.0408C65.3777 11.4999 65.6508 11.2268 65.6508 10.8899V9.2599C65.6508 8.92301 65.3777 8.6499 65.0408 8.6499Z" fill="#5C9247"/>
<path d="M34.2992 11.5H31.4492V14.35H34.2992V11.5Z" fill="#5C9247"/>
<path d="M37.1508 11.5H34.3008V14.35H37.1508V11.5Z" fill="#5C9247"/>
<path d="M40.0004 13.74C40.0004 14.07 39.7304 14.35 39.3904 14.35H37.1504V11.5H40.0004V13.74Z" fill="#5C9247"/>
<path d="M40.61 11.5H40V12.11C40 11.78 40.27 11.5 40.61 11.5Z" fill="#5C9247"/>
<path d="M47.9392 11.5H46.3092C45.9723 11.5 45.6992 11.7731 45.6992 12.11V13.74C45.6992 14.0769 45.9723 14.35 46.3092 14.35H47.9392C48.2761 14.35 48.5492 14.0769 48.5492 13.74V12.11C48.5492 11.7731 48.2761 11.5 47.9392 11.5Z" fill="#5C9247"/>
<path d="M54.2506 13.7402V12.1002C54.2506 11.7702 53.9806 11.4902 53.6406 11.4902H52.0006C51.6706 11.4902 51.3906 11.7602 51.3906 12.1002V14.3402H54.2406V13.7302L54.2506 13.7402Z" fill="#5C9247"/>
<path d="M62.7995 13.7402V12.1002C62.7995 11.7702 62.5295 11.4902 62.1895 11.4902H60.5495C60.2195 11.4902 59.9395 11.7602 59.9395 12.1002V14.3402H62.7895V13.7302L62.7995 13.7402Z" fill="#5C9247"/>
<path d="M34.2992 14.3501H31.4492V17.2001H34.2992V14.3501Z" fill="#5C9247"/>
<path d="M37.1508 16.5901C37.1508 16.9201 36.8808 17.2001 36.5408 17.2001H34.3008V14.3501H37.1508V16.5901Z" fill="#5C9247"/>
<path d="M37.7604 14.3501H37.1504V14.9601C37.1504 14.6301 37.4204 14.3501 37.7604 14.3501Z" fill="#5C9247"/>
<path d="M40.61 14.3501C40.28 14.3501 40 14.6201 40 14.9601V17.2001H42.85V14.3501H40.61Z" fill="#5C9247"/>
<path d="M43.4594 17.1998H45.0994C45.4294 17.1998 45.7094 16.9298 45.7094 16.5898V14.9498C45.7094 14.6198 45.4394 14.3398 45.0994 14.3398H42.8594V17.1898H43.4694L43.4594 17.1998Z" fill="#5C9247"/>
<path d="M50.7891 17.1998C51.1191 17.1998 51.3991 16.9298 51.3991 16.5898V17.1998H50.7891Z" fill="#5C9247"/>
<path d="M54.2504 14.3501H51.4004V17.2001H54.2504V14.3501Z" fill="#5C9247"/>
<path d="M59.9492 16.5901C59.9492 16.9201 60.2192 17.2001 60.5592 17.2001H62.1992C62.5292 17.2001 62.8092 16.9301 62.8092 16.5901V14.3501H59.9592V16.5901H59.9492Z" fill="#5C9247"/>
<path d="M34.2992 17.2002H31.4492V20.0502H34.2992V17.2002Z" fill="#5C9247"/>
<path d="M34.9108 17.2002H34.3008V17.8102C34.3008 17.4802 34.5708 17.2002 34.9108 17.2002Z" fill="#5C9247"/>
<path d="M42.85 17.2002H40V20.0502H42.85V17.2002Z" fill="#5C9247"/>
<path d="M43.4596 17.2002H42.8496V17.8102C42.8496 17.4802 43.1196 17.2002 43.4596 17.2002Z" fill="#5C9247"/>
<path d="M47.9395 17.2002H46.2995C45.9695 17.2002 45.6895 17.4702 45.6895 17.8102V19.4502C45.6895 19.7802 45.9595 20.0602 46.2995 20.0602H48.5395V17.2102H47.9295L47.9395 17.2002Z" fill="#5C9247"/>
<path d="M51.4008 17.2002H48.5508V20.0502H51.4008V17.2002Z" fill="#5C9247"/>
<path d="M54.2504 19.4402C54.2504 19.7702 53.9804 20.0502 53.6404 20.0502H51.4004V17.2002H54.2504V19.4402V19.4402Z" fill="#5C9247"/>
<path d="M59.3396 17.2002H57.7096C57.3727 17.2002 57.0996 17.4733 57.0996 17.8102V19.4402C57.0996 19.7771 57.3727 20.0502 57.7096 20.0502H59.3396C59.6765 20.0502 59.9496 19.7771 59.9496 19.4402V17.8102C59.9496 17.4733 59.6765 17.2002 59.3396 17.2002Z" fill="#5C9247"/>
<path d="M68.5006 19.4399V17.7999C68.5006 17.4699 68.2306 17.1899 67.8906 17.1899H66.2506C65.9206 17.1899 65.6406 17.4599 65.6406 17.7999V20.0399H68.4906V19.4299L68.5006 19.4399Z" fill="#5C9247"/>
<path d="M31.4492 22.2898C31.4492 22.6198 31.7192 22.8998 32.0592 22.8998H33.6992C34.0292 22.8998 34.3092 22.6298 34.3092 22.2898V20.0498H31.4592V22.2898H31.4492Z" fill="#5C9247"/>
<path d="M39.3906 22.9C39.7206 22.9 40.0006 22.63 40.0006 22.29V22.9H39.3906Z" fill="#5C9247"/>
<path d="M42.85 20.0498H40V22.8998H42.85V20.0498Z" fill="#5C9247"/>
<path d="M43.4596 22.9C43.1296 22.9 42.8496 22.63 42.8496 22.29V22.9H43.4596Z" fill="#5C9247"/>
<path d="M48.5495 20.6598V20.0498H47.9395C48.2695 20.0498 48.5495 20.3198 48.5495 20.6598Z" fill="#5C9247"/>
<path d="M48.5508 22.2898C48.5508 22.6198 48.8208 22.8998 49.1608 22.8998H50.8008C51.1308 22.8998 51.4108 22.6298 51.4108 22.2898V20.0498H48.5608V22.2898H48.5508Z" fill="#5C9247"/>
<path d="M52.0104 20.0498H51.4004V20.6598C51.4004 20.3298 51.6704 20.0498 52.0104 20.0498Z" fill="#5C9247"/>
<path d="M56.49 20.0498H54.86C54.5231 20.0498 54.25 20.3229 54.25 20.6598V22.2898C54.25 22.6267 54.5231 22.8998 54.86 22.8998H56.49C56.8269 22.8998 57.1 22.6267 57.1 22.2898V20.6598C57.1 20.3229 56.8269 20.0498 56.49 20.0498Z" fill="#5C9247"/>
<path d="M62.1892 20.0498H60.5592C60.2223 20.0498 59.9492 20.3229 59.9492 20.6598V22.2898C59.9492 22.6267 60.2223 22.8998 60.5592 22.8998H62.1892C62.5261 22.8998 62.7992 22.6267 62.7992 22.2898V20.6598C62.7992 20.3229 62.5261 20.0498 62.1892 20.0498Z" fill="#5C9247"/>
<path d="M65.6504 22.2898C65.6504 22.6198 65.9204 22.8998 66.2604 22.8998H67.9004C68.2304 22.8998 68.5104 22.6298 68.5104 22.2898V20.0498H65.6604V22.2898H65.6504Z" fill="#5C9247"/>
<path d="M36.5391 22.8999H34.8991C34.5691 22.8999 34.2891 23.1699 34.2891 23.5099V25.1499C34.2891 25.4799 34.5591 25.7599 34.8991 25.7599H37.1391V22.9099H36.5291L36.5391 22.8999Z" fill="#5C9247"/>
<path d="M40.0004 22.8999H37.1504V25.7499H40.0004V22.8999Z" fill="#5C9247"/>
<path d="M42.85 22.8999H40V25.7499H42.85V22.8999Z" fill="#5C9247"/>
<path d="M45.0896 22.8999C45.4196 22.8999 45.6996 23.1699 45.6996 23.5099V25.7499H42.8496V22.8999H45.0896Z" fill="#5C9247"/>
<path d="M65.0408 22.8999H63.4108C63.0739 22.8999 62.8008 23.173 62.8008 23.5099V25.1399C62.8008 25.4768 63.0739 25.7499 63.4108 25.7499H65.0408C65.3777 25.7499 65.6508 25.4768 65.6508 25.1399V23.5099C65.6508 23.173 65.3777 22.8999 65.0408 22.8999Z" fill="#5C9247"/>
<path d="M33.6892 25.75H32.0592C31.7223 25.75 31.4492 26.0231 31.4492 26.36V27.99C31.4492 28.3269 31.7223 28.6 32.0592 28.6H33.6892C34.0261 28.6 34.2992 28.3269 34.2992 27.99V26.36C34.2992 26.0231 34.0261 25.75 33.6892 25.75Z" fill="#5C9247"/>
<path d="M37.1491 26.36V25.75H36.5391C36.8691 25.75 37.1491 26.02 37.1491 26.36Z" fill="#5C9247"/>
<path d="M37.1504 27.99C37.1504 28.32 37.4204 28.6 37.7604 28.6H39.4004C39.7304 28.6 40.0104 28.33 40.0104 27.99V25.75H37.1604V27.99H37.1504Z" fill="#5C9247"/>
<path d="M40.61 25.75H40V26.36C40 26.03 40.27 25.75 40.61 25.75Z" fill="#5C9247"/>
<path d="M42.8502 26.36V25.75H42.2402C42.5702 25.75 42.8502 26.02 42.8502 26.36Z" fill="#5C9247"/>
<path d="M42.2402 28.6002C42.5702 28.6002 42.8502 28.3302 42.8502 27.9902V28.6002H42.2402Z" fill="#5C9247"/>
<path d="M45.6996 25.75H42.8496V28.6H45.6996V25.75Z" fill="#5C9247"/>
<path d="M46.3092 28.6002C45.9792 28.6002 45.6992 28.3302 45.6992 27.9902V28.6002H46.3092Z" fill="#5C9247"/>
<path d="M50.7908 25.75H49.1608C48.8239 25.75 48.5508 26.0231 48.5508 26.36V27.99C48.5508 28.3269 48.8239 28.6 49.1608 28.6H50.7908C51.1277 28.6 51.4008 28.3269 51.4008 27.99V26.36C51.4008 26.0231 51.1277 25.75 50.7908 25.75Z" fill="#5C9247"/>
<path d="M56.49 25.75H54.86C54.5231 25.75 54.25 26.0231 54.25 26.36V27.99C54.25 28.3269 54.5231 28.6 54.86 28.6H56.49C56.8269 28.6 57.1 28.3269 57.1 27.99V26.36C57.1 26.0231 56.8269 25.75 56.49 25.75Z" fill="#5C9247"/>
<path d="M62.1892 25.75H60.5592C60.2223 25.75 59.9492 26.0231 59.9492 26.36V27.99C59.9492 28.3269 60.2223 28.6 60.5592 28.6H62.1892C62.5261 28.6 62.7992 28.3269 62.7992 27.99V26.36C62.7992 26.0231 62.5261 25.75 62.1892 25.75Z" fill="#5C9247"/>
<path d="M68.5006 27.9902V26.3502C68.5006 26.0202 68.2306 25.7402 67.8906 25.7402H66.2506C65.9206 25.7402 65.6406 26.0102 65.6406 26.3502V28.5902H68.4906V27.9802L68.5006 27.9902Z" fill="#5C9247"/>
<path d="M37.1491 30.8398V29.1998C37.1491 28.8698 36.8791 28.5898 36.5391 28.5898H34.8991C34.5691 28.5898 34.2891 28.8598 34.2891 29.1998V31.4398H37.1391V30.8298L37.1491 30.8398Z" fill="#5C9247"/>
<path d="M39.3906 31.4498C39.7206 31.4498 40.0006 31.1798 40.0006 30.8398V31.4498H39.3906Z" fill="#5C9247"/>
<path d="M37.7604 31.4498C37.4304 31.4498 37.1504 31.1798 37.1504 30.8398V31.4498H37.7604Z" fill="#5C9247"/>
<path d="M40.61 28.6001C40.28 28.6001 40 28.8701 40 29.2101V31.4501H42.85V28.6001H40.61Z" fill="#5C9247"/>
<path d="M45.6996 28.6001H42.8496V31.4501H45.6996V28.6001Z" fill="#5C9247"/>
<path d="M47.9392 28.6001C48.2692 28.6001 48.5492 28.8701 48.5492 29.2101V31.4501H45.6992V28.6001H47.9392Z" fill="#5C9247"/>
<path d="M49.1608 31.4498C48.8308 31.4498 48.5508 31.1798 48.5508 30.8398V31.4498H49.1608Z" fill="#5C9247"/>
<path d="M56.4902 31.4498C56.8202 31.4498 57.1002 31.1798 57.1002 30.8398V31.4498H56.4902Z" fill="#5C9247"/>
<path d="M59.9498 30.8398V29.1998C59.9498 28.8698 59.6798 28.5898 59.3398 28.5898H57.6998C57.3698 28.5898 57.0898 28.8598 57.0898 29.1998V31.4398H59.9398V30.8298L59.9498 30.8398Z" fill="#5C9247"/>
<path d="M65.6504 30.8401C65.6504 31.1701 65.9204 31.4501 66.2604 31.4501H67.9004C68.2304 31.4501 68.5104 31.1801 68.5104 30.8401V28.6001H65.6604V30.8401H65.6504Z" fill="#5C9247"/>
<path d="M19.4395 31.4502H17.7995C17.4695 31.4502 17.1895 31.7202 17.1895 32.0602V33.7002C17.1895 34.0302 17.4595 34.3102 17.7995 34.3102H20.0395V31.4602H19.4295L19.4395 31.4502Z" fill="#5C9247"/>
<path d="M22.2908 31.4502C22.6208 31.4502 22.9008 31.7202 22.9008 32.0602V34.3002H20.0508V31.4502H22.2908V31.4502Z" fill="#5C9247"/>
<path d="M27.9902 31.4502H26.3502C26.0202 31.4502 25.7402 31.7202 25.7402 32.0602V33.7002C25.7402 34.0302 26.0102 34.3102 26.3502 34.3102H28.5902V31.4602H27.9802L27.9902 31.4502Z" fill="#5C9247"/>
<path d="M29.2094 34.3004H30.8494C31.1794 34.3004 31.4594 34.0304 31.4594 33.6904V32.0504C31.4594 31.7204 31.1894 31.4404 30.8494 31.4404H28.6094V34.2904H29.2194L29.2094 34.3004Z" fill="#5C9247"/>
<path d="M37.1508 31.4502H34.3008V34.3002H37.1508V31.4502Z" fill="#5C9247"/>
<path d="M40.0004 31.4502H37.1504V34.3002H40.0004V31.4502Z" fill="#5C9247"/>
<path d="M42.85 31.4502H40V34.3002H42.85V31.4502Z" fill="#5C9247"/>
<path d="M45.6996 31.4502H42.8496V34.3002H45.6996V31.4502Z" fill="#5C9247"/>
<path d="M48.5492 31.4502H45.6992V34.3002H48.5492V31.4502Z" fill="#5C9247"/>
<path d="M50.7908 31.4502C51.1208 31.4502 51.4008 31.7202 51.4008 32.0602V34.3002H48.5508V31.4502H50.7908V31.4502Z" fill="#5C9247"/>
<path d="M56.4902 31.4502H54.8502C54.5202 31.4502 54.2402 31.7202 54.2402 32.0602V33.7002C54.2402 34.0302 54.5102 34.3102 54.8502 34.3102H57.0902V31.4602H56.4802L56.4902 31.4502Z" fill="#5C9247"/>
<path d="M59.9496 33.6902C59.9496 34.0202 59.6796 34.3002 59.3396 34.3002H57.0996V31.4502H59.9496V33.6902Z" fill="#5C9247"/>
<path d="M73.5896 31.4502H71.9596C71.6227 31.4502 71.3496 31.7233 71.3496 32.0602V33.6902C71.3496 34.0271 71.6227 34.3002 71.9596 34.3002H73.5896C73.9265 34.3002 74.1996 34.0271 74.1996 33.6902V32.0602C74.1996 31.7233 73.9265 31.4502 73.5896 31.4502Z" fill="#5C9247"/>
<path d="M80.5104 31.4502C80.1804 31.4502 79.9004 31.7202 79.9004 32.0602V34.3002H82.7504V31.4502H80.5104V31.4502Z" fill="#5C9247"/>
<path d="M84.99 31.4502C85.32 31.4502 85.6 31.7202 85.6 32.0602V34.3002H82.75V31.4502H84.99V31.4502Z" fill="#5C9247"/>
<path d="M86.2096 34.3004C85.8796 34.3004 85.5996 34.0304 85.5996 33.6904V34.3004H86.2096Z" fill="#5C9247"/>
<path d="M13.7402 37.15C14.0702 37.15 14.3502 36.88 14.3502 36.54V37.15H13.7402Z" fill="#5C9247"/>
<path d="M17.1998 36.54V34.9C17.1998 34.57 16.9298 34.29 16.5898 34.29H14.9498C14.6198 34.29 14.3398 34.56 14.3398 34.9V37.14H17.1898V36.53L17.1998 36.54Z" fill="#5C9247"/>
<path d="M20.0495 34.9098V34.2998H19.4395C19.7695 34.2998 20.0495 34.5698 20.0495 34.9098Z" fill="#5C9247"/>
<path d="M17.8092 37.15C17.4792 37.15 17.1992 36.88 17.1992 36.54V37.15H17.8092Z" fill="#5C9247"/>
<path d="M20.0508 36.5398C20.0508 36.8698 20.3208 37.1498 20.6608 37.1498H22.3008C22.6308 37.1498 22.9108 36.8798 22.9108 36.5398V34.2998H20.0608V36.5398H20.0508Z" fill="#5C9247"/>
<path d="M34.3008 36.5398C34.3008 36.8698 34.5708 37.1498 34.9108 37.1498H37.1508V34.2998H34.3008V36.5398Z" fill="#5C9247"/>
<path d="M40.0004 36.5398C40.0004 36.8698 39.7304 37.1498 39.3904 37.1498H37.1504V34.2998H40.0004V36.5398Z" fill="#5C9247"/>
<path d="M40.61 34.2998H40V34.9098C40 34.5798 40.27 34.2998 40.61 34.2998Z" fill="#5C9247"/>
<path d="M42.8502 34.9098V34.2998H42.2402C42.5702 34.2998 42.8502 34.5698 42.8502 34.9098Z" fill="#5C9247"/>
<path d="M42.8496 36.5398C42.8496 36.8698 43.1196 37.1498 43.4596 37.1498H45.0996C45.4296 37.1498 45.7096 36.8798 45.7096 36.5398V34.2998H42.8596V36.5398H42.8496Z" fill="#5C9247"/>
<path d="M46.3092 34.2998H45.6992V34.9098C45.6992 34.5798 45.9692 34.2998 46.3092 34.2998Z" fill="#5C9247"/>
<path d="M48.5495 34.9098V34.2998H47.9395C48.2695 34.2998 48.5495 34.5698 48.5495 34.9098Z" fill="#5C9247"/>
<path d="M48.5508 36.5398C48.5508 36.8698 48.8208 37.1498 49.1608 37.1498H50.8008C51.1308 37.1498 51.4108 36.8798 51.4108 36.5398V34.2998H48.5608V36.5398H48.5508Z" fill="#5C9247"/>
<path d="M65.6491 36.54V34.9C65.6491 34.57 65.3791 34.29 65.0391 34.29H63.3991C63.0691 34.29 62.7891 34.56 62.7891 34.9V37.14H65.6391V36.53L65.6491 36.54Z" fill="#5C9247"/>
<path d="M71.3502 36.54V34.9C71.3502 34.57 71.0802 34.29 70.7402 34.29H69.1002C68.7702 34.29 68.4902 34.56 68.4902 34.9V37.14H71.3402V36.53L71.3502 36.54Z" fill="#5C9247"/>
<path d="M71.9596 37.15C71.6296 37.15 71.3496 36.88 71.3496 36.54V37.15H71.9596Z" fill="#5C9247"/>
<path d="M76.4392 34.2998H74.8092C74.4723 34.2998 74.1992 34.5729 74.1992 34.9098V36.5398C74.1992 36.8767 74.4723 37.1498 74.8092 37.1498H76.4392C76.7761 37.1498 77.0492 36.8767 77.0492 36.5398V34.9098C77.0492 34.5729 76.7761 34.2998 76.4392 34.2998Z" fill="#5C9247"/>
<path d="M79.9004 36.5398C79.9004 36.8698 80.1704 37.1498 80.5104 37.1498H82.7504V34.2998H79.9004V36.5398Z" fill="#5C9247"/>
<path d="M85.6 34.2998H82.75V37.1498H85.6V34.2998Z" fill="#5C9247"/>
<path d="M86.2094 37.15H87.8494C88.1794 37.15 88.4594 36.88 88.4594 36.54V34.9C88.4594 34.57 88.1894 34.29 87.8494 34.29H85.6094V37.14H86.2194L86.2094 37.15Z" fill="#5C9247"/>
<path d="M10.8906 37.1504H9.25062C8.92062 37.1504 8.64062 37.4204 8.64062 37.7604V39.4004C8.64062 39.7304 8.91062 40.0104 9.25062 40.0104H11.4906V37.1604H10.8806L10.8906 37.1504Z" fill="#5C9247"/>
<path d="M14.35 37.1504H11.5V40.0004H14.35V37.1504Z" fill="#5C9247"/>
<path d="M17.1996 37.1504H14.3496V40.0004H17.1996V37.1504Z" fill="#5C9247"/>
<path d="M17.8109 39.9996H19.4509C19.7809 39.9996 20.0609 39.7296 20.0609 39.3896V37.7496C20.0609 37.4196 19.7909 37.1396 19.4509 37.1396H17.2109V39.9897H17.8209L17.8109 39.9996Z" fill="#5C9247"/>
<path d="M27.9902 37.1504H26.3502C26.0202 37.1504 25.7402 37.4204 25.7402 37.7604V39.4004C25.7402 39.7304 26.0102 40.0104 26.3502 40.0104H28.5902V37.1604H27.9802L27.9902 37.1504Z" fill="#5C9247"/>
<path d="M31.4496 37.1504H28.5996V40.0004H31.4496V37.1504Z" fill="#5C9247"/>
<path d="M32.0609 39.9996H33.7009C34.0309 39.9996 34.3109 39.7296 34.3109 39.3896V37.7496C34.3109 37.4196 34.0409 37.1396 33.7009 37.1396H31.4609V39.9897H32.0709L32.0609 39.9996Z" fill="#5C9247"/>
<path d="M53.6406 37.1504H52.0006C51.6706 37.1504 51.3906 37.4204 51.3906 37.7604V39.4004C51.3906 39.7304 51.6606 40.0104 52.0006 40.0104H54.2406V37.1604H53.6306L53.6406 37.1504Z" fill="#5C9247"/>
<path d="M54.8598 39.9996H56.4998C56.8298 39.9996 57.1098 39.7296 57.1098 39.3896V37.7496C57.1098 37.4196 56.8398 37.1396 56.4998 37.1396H54.2598V39.9897H54.8698L54.8598 39.9996Z" fill="#5C9247"/>
<path d="M62.8008 39.3904C62.8008 39.7204 63.0708 40.0004 63.4108 40.0004H65.0508C65.3808 40.0004 65.6608 39.7304 65.6608 39.3904V37.1504H62.8108V39.3904H62.8008Z" fill="#5C9247"/>
<path d="M68.5 39.3904C68.5 39.7204 68.77 40.0004 69.11 40.0004H71.35V37.1504H68.5V39.3904Z" fill="#5C9247"/>
<path d="M71.9594 39.9996H73.5994C73.9294 39.9996 74.2094 39.7296 74.2094 39.3896V37.7496C74.2094 37.4196 73.9394 37.1396 73.5994 37.1396H71.3594V39.9897H71.9694L71.9594 39.9996Z" fill="#5C9247"/>
<path d="M79.2908 37.1504H77.6608C77.3239 37.1504 77.0508 37.4235 77.0508 37.7604V39.3904C77.0508 39.7273 77.3239 40.0004 77.6608 40.0004H79.2908C79.6277 40.0004 79.9008 39.7273 79.9008 39.3904V37.7604C79.9008 37.4235 79.6277 37.1504 79.2908 37.1504Z" fill="#5C9247"/>
<path d="M82.7506 37.7604V37.1504H82.1406C82.4706 37.1504 82.7506 37.4204 82.7506 37.7604Z" fill="#5C9247"/>
<path d="M82.75 39.3904C82.75 39.7204 83.02 40.0004 83.36 40.0004H85C85.33 40.0004 85.61 39.7304 85.61 39.3904V37.1504H82.76V39.3904H82.75Z" fill="#5C9247"/>
<path d="M86.2096 37.1504H85.5996V37.7604C85.5996 37.4304 85.8696 37.1504 86.2096 37.1504Z" fill="#5C9247"/>
<path d="M90.6892 37.1504H89.0592C88.7223 37.1504 88.4492 37.4235 88.4492 37.7604V39.3904C88.4492 39.7273 88.7223 40.0004 89.0592 40.0004H90.6892C91.0261 40.0004 91.2992 39.7273 91.2992 39.3904V37.7604C91.2992 37.4235 91.0261 37.1504 90.6892 37.1504Z" fill="#5C9247"/>
<path d="M10.8906 59.9498C11.2206 59.9498 11.5006 59.6798 11.5006 59.3398V59.9498H10.8906Z" fill="#5C9247"/>
<path d="M12.11 57.0996C11.78 57.0996 11.5 57.3696 11.5 57.7096V59.9496H14.35V57.0996H12.11Z" fill="#5C9247"/>
<path d="M17.1996 57.0996H14.3496V59.9496H17.1996V57.0996Z" fill="#5C9247"/>
<path d="M17.8109 59.9498H19.4509C19.7809 59.9498 20.0609 59.6798 20.0609 59.3398V57.6998C20.0609 57.3698 19.7909 57.0898 19.4509 57.0898H17.2109V59.9398H17.8209L17.8109 59.9498Z" fill="#5C9247"/>
<path d="M36.5391 57.0996H34.8991C34.5691 57.0996 34.2891 57.3696 34.2891 57.7096V59.3496C34.2891 59.6796 34.5591 59.9596 34.8991 59.9596H37.1391V57.1096H36.5291L36.5391 57.0996Z" fill="#5C9247"/>
<path d="M40.0004 57.0996H37.1504V59.9496H40.0004V57.0996Z" fill="#5C9247"/>
<path d="M40.6098 59.9498H42.2498C42.5798 59.9498 42.8598 59.6798 42.8598 59.3398V57.6998C42.8598 57.3698 42.5898 57.0898 42.2498 57.0898H40.0098V59.9398H40.6198L40.6098 59.9498Z" fill="#5C9247"/>
<path d="M50.7891 57.0996H49.1491C48.8191 57.0996 48.5391 57.3696 48.5391 57.7096V59.3496C48.5391 59.6796 48.8091 59.9596 49.1491 59.9596H51.3891V57.1096H50.7791L50.7891 57.0996Z" fill="#5C9247"/>
<path d="M52.0102 59.9498H53.6502C53.9802 59.9498 54.2602 59.6798 54.2602 59.3398V57.6998C54.2602 57.3698 53.9902 57.0898 53.6502 57.0898H51.4102V59.9398H52.0202L52.0102 59.9498Z" fill="#5C9247"/>
<path d="M56.4902 59.9498C56.8202 59.9498 57.1002 59.6798 57.1002 59.3398V59.9498H56.4902Z" fill="#5C9247"/>
<path d="M59.9498 59.3398V57.6998C59.9498 57.3698 59.6798 57.0898 59.3398 57.0898H57.6998C57.3698 57.0898 57.0898 57.3598 57.0898 57.6998V59.9398H59.9398V59.3298L59.9498 59.3398Z" fill="#5C9247"/>
<path d="M65.6491 59.3398V57.6998C65.6491 57.3698 65.3791 57.0898 65.0391 57.0898H63.3991C63.0691 57.0898 62.7891 57.3598 62.7891 57.6998V59.9398H65.6391V59.3298L65.6491 59.3398Z" fill="#5C9247"/>
<path d="M66.2604 59.9498C65.9304 59.9498 65.6504 59.6798 65.6504 59.3398V59.9498H66.2604Z" fill="#5C9247"/>
<path d="M73.5898 59.9498C73.9198 59.9498 74.1998 59.6798 74.1998 59.3398V59.9498H73.5898Z" fill="#5C9247"/>
<path d="M74.8092 57.0996C74.4792 57.0996 74.1992 57.3696 74.1992 57.7096V59.9496H77.0492V57.0996H74.8092Z" fill="#5C9247"/>
<path d="M79.9008 57.0996H77.0508V59.9496H79.9008V57.0996Z" fill="#5C9247"/>
<path d="M82.1404 57.0996C82.4704 57.0996 82.7504 57.3696 82.7504 57.7096V59.9496H79.9004V57.0996H82.1404Z" fill="#5C9247"/>
<path d="M87.8398 57.0996H86.1998C85.8698 57.0996 85.5898 57.3696 85.5898 57.7096V59.3496C85.5898 59.6796 85.8598 59.9596 86.1998 59.9596H88.4398V57.1096H87.8298L87.8398 57.0996Z" fill="#5C9247"/>
<path d="M89.0609 59.9498H90.7009C91.0309 59.9498 91.3109 59.6798 91.3109 59.3398V57.6998C91.3109 57.3698 91.0409 57.0898 90.7009 57.0898H88.4609V59.9398H89.0709L89.0609 59.9498Z" fill="#5C9247"/>
<path d="M9.26039 59.9502C8.93039 59.9502 8.65039 60.2202 8.65039 60.5602V62.8002H11.5004V59.9502H9.26039Z" fill="#5C9247"/>
<path d="M14.35 59.9502H11.5V62.8002H14.35V59.9502Z" fill="#5C9247"/>
<path d="M17.1996 59.9502H14.3496V62.8002H17.1996V59.9502Z" fill="#5C9247"/>
<path d="M17.8092 59.9502H17.1992V60.5602C17.1992 60.2302 17.4692 59.9502 17.8092 59.9502Z" fill="#5C9247"/>
<path d="M17.8092 62.8004C17.4792 62.8004 17.1992 62.5304 17.1992 62.1904V62.8004H17.8092Z" fill="#5C9247"/>
<path d="M22.2891 59.9502H20.6491C20.3191 59.9502 20.0391 60.2202 20.0391 60.5602V62.2002C20.0391 62.5302 20.3091 62.8102 20.6491 62.8102H22.8891V59.9602H22.2791L22.2891 59.9502Z" fill="#5C9247"/>
<path d="M25.7504 59.9502H22.9004V62.8002H25.7504V59.9502Z" fill="#5C9247"/>
<path d="M28.6 59.9502H25.75V62.8002H28.6V59.9502Z" fill="#5C9247"/>
<path d="M31.4496 59.9502H28.5996V62.8002H31.4496V59.9502Z" fill="#5C9247"/>
<path d="M33.6892 59.9502C34.0192 59.9502 34.2992 60.2202 34.2992 60.5602V62.8002H31.4492V59.9502H33.6892Z" fill="#5C9247"/>
<path d="M34.9108 62.8004C34.5808 62.8004 34.3008 62.5304 34.3008 62.1904V62.8004H34.9108Z" fill="#5C9247"/>
<path d="M45.0898 59.9502H43.4498C43.1198 59.9502 42.8398 60.2202 42.8398 60.5602V62.2002C42.8398 62.5302 43.1098 62.8102 43.4498 62.8102H45.6898V59.9602H45.0798L45.0898 59.9502Z" fill="#5C9247"/>
<path d="M47.9392 59.9502C48.2692 59.9502 48.5492 60.2202 48.5492 60.5602V62.8002H45.6992V59.9502H47.9392Z" fill="#5C9247"/>
<path d="M54.86 59.9502C54.53 59.9502 54.25 60.2202 54.25 60.5602V62.8002H57.1V59.9502H54.86Z" fill="#5C9247"/>
<path d="M59.9496 62.1902C59.9496 62.5202 59.6796 62.8002 59.3396 62.8002H57.0996V59.9502H59.9496V62.1902Z" fill="#5C9247"/>
<path d="M65.6508 59.9502H62.8008V62.8002H65.6508V59.9502Z" fill="#5C9247"/>
<path d="M68.5004 59.9502H65.6504V62.8002H68.5004V59.9502Z" fill="#5C9247"/>
<path d="M71.35 59.9502H68.5V62.8002H71.35V59.9502Z" fill="#5C9247"/>
<path d="M74.1996 59.9502H71.3496V62.8002H74.1996V59.9502Z" fill="#5C9247"/>
<path d="M77.0492 59.9502H74.1992V62.8002H77.0492V59.9502Z" fill="#5C9247"/>
<path d="M79.9008 59.9502H77.0508V62.8002H79.9008V59.9502Z" fill="#5C9247"/>
<path d="M82.7504 62.1902C82.7504 62.5202 82.4804 62.8002 82.1404 62.8002H79.9004V59.9502H82.7504V62.1902Z" fill="#5C9247"/>
<path d="M11.5004 62.7998H8.65039V65.6498H11.5004V62.7998Z" fill="#5C9247"/>
<path d="M12.11 62.7998H11.5V63.4098C11.5 63.0798 11.77 62.7998 12.11 62.7998Z" fill="#5C9247"/>
<path d="M14.3502 63.4098V62.7998H13.7402C14.0702 62.7998 14.3502 63.0698 14.3502 63.4098Z" fill="#5C9247"/>
<path d="M12.11 65.65C11.78 65.65 11.5 65.38 11.5 65.04V65.65H12.11Z" fill="#5C9247"/>
<path d="M14.3496 65.0398C14.3496 65.3698 14.6196 65.6498 14.9596 65.6498H17.1996V62.7998H14.3496V65.0398Z" fill="#5C9247"/>
<path d="M17.8109 65.65H19.4509C19.7809 65.65 20.0609 65.38 20.0609 65.04V63.4C20.0609 63.07 19.7909 62.79 19.4509 62.79H17.2109V65.64H17.8209L17.8109 65.65Z" fill="#5C9247"/>
<path d="M22.8991 63.4098V62.7998H22.2891C22.6191 62.7998 22.8991 63.0698 22.8991 63.4098Z" fill="#5C9247"/>
<path d="M22.2891 65.65C22.6191 65.65 22.8991 65.38 22.8991 65.04V65.65H22.2891Z" fill="#5C9247"/>
<path d="M25.7504 62.7998H22.9004V65.6498H25.7504V62.7998Z" fill="#5C9247"/>
<path d="M28.6 62.7998H25.75V65.6498H28.6V62.7998Z" fill="#5C9247"/>
<path d="M31.4496 62.7998H28.5996V65.6498H31.4496V62.7998Z" fill="#5C9247"/>
<path d="M34.2992 62.7998H31.4492V65.6498H34.2992V62.7998Z" fill="#5C9247"/>
<path d="M34.9105 65.65H36.5505C36.8805 65.65 37.1605 65.38 37.1605 65.04V63.4C37.1605 63.07 36.8905 62.79 36.5505 62.79H34.3105V65.64H34.9205L34.9105 65.65Z" fill="#5C9247"/>
<path d="M45.6998 63.4098V62.7998H45.0898C45.4198 62.7998 45.6998 63.0698 45.6998 63.4098Z" fill="#5C9247"/>
<path d="M48.5492 62.7998H45.6992V65.6498H48.5492V62.7998Z" fill="#5C9247"/>
<path d="M54.25 65.0398C54.25 65.3698 54.52 65.6498 54.86 65.6498H56.5C56.83 65.6498 57.11 65.3798 57.11 65.0398V62.7998H54.26V65.0398H54.25Z" fill="#5C9247"/>
<path d="M57.7096 62.7998H57.0996V63.4098C57.0996 63.0798 57.3696 62.7998 57.7096 62.7998Z" fill="#5C9247"/>
<path d="M62.8008 65.0398C62.8008 65.3698 63.0708 65.6498 63.4108 65.6498H65.6508V62.7998H62.8008V65.0398V65.0398Z" fill="#5C9247"/>
<path d="M68.5004 62.7998H65.6504V65.6498H68.5004V62.7998Z" fill="#5C9247"/>
<path d="M69.11 62.7998H68.5V63.4098C68.5 63.0798 68.77 62.7998 69.11 62.7998Z" fill="#5C9247"/>
<path d="M83.36 62.7998C83.03 62.7998 82.75 63.0698 82.75 63.4098V65.6498H85.6V62.7998H83.36V62.7998Z" fill="#5C9247"/>
<path d="M88.4496 62.7998H85.5996V65.6498H88.4496V62.7998Z" fill="#5C9247"/>
<path d="M90.6892 62.7998C91.0192 62.7998 91.2992 63.0698 91.2992 63.4098V65.6498H88.4492V62.7998H90.6892V62.7998Z" fill="#5C9247"/>
<path d="M8.65039 67.8904C8.65039 68.2204 8.92039 68.5004 9.26039 68.5004H11.5004V65.6504H8.65039V67.8904Z" fill="#5C9247"/>
<path d="M13.74 65.6504C14.07 65.6504 14.35 65.9204 14.35 66.2604V68.5004H11.5V65.6504H13.74Z" fill="#5C9247"/>
<path d="M14.9596 68.4996C14.6296 68.4996 14.3496 68.2296 14.3496 67.8896V68.4996H14.9596Z" fill="#5C9247"/>
<path d="M20.6608 65.6504C20.3308 65.6504 20.0508 65.9204 20.0508 66.2604V68.5004H22.9008V65.6504H20.6608V65.6504Z" fill="#5C9247"/>
<path d="M25.7504 65.6504H22.9004V68.5004H25.7504V65.6504Z" fill="#5C9247"/>
<path d="M28.6 65.6504H25.75V68.5004H28.6V65.6504Z" fill="#5C9247"/>
<path d="M31.4496 65.6504H28.5996V68.5004H31.4496V65.6504Z" fill="#5C9247"/>
<path d="M34.2992 65.6504H31.4492V68.5004H34.2992V65.6504Z" fill="#5C9247"/>
<path d="M34.9108 65.6504H34.3008V66.2604C34.3008 65.9304 34.5708 65.6504 34.9108 65.6504Z" fill="#5C9247"/>
<path d="M34.9108 68.4996C34.5808 68.4996 34.3008 68.2296 34.3008 67.8896V68.4996H34.9108Z" fill="#5C9247"/>
<path d="M45.6992 67.8904C45.6992 68.2204 45.9692 68.5004 46.3092 68.5004H47.9492C48.2792 68.5004 48.5592 68.2304 48.5592 67.8904V65.6504H45.7092V67.8904H45.6992Z" fill="#5C9247"/>
<path d="M56.4902 68.4996C56.8202 68.4996 57.1002 68.2296 57.1002 67.8896V68.4996H56.4902Z" fill="#5C9247"/>
<path d="M57.7096 65.6504C57.3796 65.6504 57.0996 65.9204 57.0996 66.2604V68.5004H59.9496V65.6504H57.7096Z" fill="#5C9247"/>
<path d="M60.5609 68.4996H62.2009C62.5309 68.4996 62.8109 68.2296 62.8109 67.8896V66.2496C62.8109 65.9196 62.5409 65.6396 62.2009 65.6396H59.9609V68.4896H60.5709L60.5609 68.4996Z" fill="#5C9247"/>
<path d="M65.6491 66.2604V65.6504H65.0391C65.3691 65.6504 65.6491 65.9204 65.6491 66.2604Z" fill="#5C9247"/>
<path d="M65.6504 67.8904C65.6504 68.2204 65.9204 68.5004 66.2604 68.5004H67.9004C68.2304 68.5004 68.5104 68.2304 68.5104 67.8904V65.6504H65.6604V67.8904H65.6504Z" fill="#5C9247"/>
<path d="M73.5898 65.6504H71.9498C71.6198 65.6504 71.3398 65.9204 71.3398 66.2604V67.9004C71.3398 68.2304 71.6098 68.5104 71.9498 68.5104H74.1898V65.6604H73.5798L73.5898 65.6504Z" fill="#5C9247"/>
<path d="M77.0492 65.6504H74.1992V68.5004H77.0492V65.6504Z" fill="#5C9247"/>
<path d="M77.6606 68.4996H79.3006C79.6306 68.4996 79.9106 68.2296 79.9106 67.8896V66.2496C79.9106 65.9196 79.6406 65.6396 79.3006 65.6396H77.0605V68.4896H77.6705L77.6606 68.4996Z" fill="#5C9247"/>
<path d="M82.75 67.8904C82.75 68.2204 83.02 68.5004 83.36 68.5004H85C85.33 68.5004 85.61 68.2304 85.61 67.8904V65.6504H82.76V67.8904H82.75Z" fill="#5C9247"/>
<path d="M86.2096 65.6504H85.5996V66.2604C85.5996 65.9304 85.8696 65.6504 86.2096 65.6504Z" fill="#5C9247"/>
<path d="M88.4498 66.2604V65.6504H87.8398C88.1698 65.6504 88.4498 65.9204 88.4498 66.2604Z" fill="#5C9247"/>
<path d="M88.4492 67.8904C88.4492 68.2204 88.7192 68.5004 89.0592 68.5004H90.6992C91.0292 68.5004 91.3092 68.2304 91.3092 67.8904V65.6504H88.4592V67.8904H88.4492Z" fill="#5C9247"/>
<path d="M11.5006 69.11V68.5H10.8906C11.2206 68.5 11.5006 68.77 11.5006 69.11Z" fill="#5C9247"/>
<path d="M14.35 68.5H11.5V71.35H14.35V68.5Z" fill="#5C9247"/>
<path d="M14.9594 71.3502H16.5994C16.9294 71.3502 17.2094 71.0802 17.2094 70.7402V69.1002C17.2094 68.7702 16.9394 68.4902 16.5994 68.4902H14.3594V71.3402H14.9694L14.9594 71.3502Z" fill="#5C9247"/>
<path d="M19.4395 71.3502C19.7695 71.3502 20.0495 71.0802 20.0495 70.7402V71.3502H19.4395Z" fill="#5C9247"/>
<path d="M22.9008 68.5H20.0508V71.35H22.9008V68.5Z" fill="#5C9247"/>
<path d="M23.5104 68.5H22.9004V69.11C22.9004 68.78 23.1704 68.5 23.5104 68.5Z" fill="#5C9247"/>
<path d="M31.4498 69.11V68.5H30.8398C31.1698 68.5 31.4498 68.77 31.4498 69.11Z" fill="#5C9247"/>
<path d="M34.2992 68.5H31.4492V71.35H34.2992V68.5Z" fill="#5C9247"/>
<path d="M37.1508 68.5H34.3008V71.35H37.1508V68.5Z" fill="#5C9247"/>
<path d="M39.3904 68.5C39.7204 68.5 40.0004 68.77 40.0004 69.11V71.35H37.1504V68.5H39.3904Z" fill="#5C9247"/>
<path d="M40.61 71.3502C40.28 71.3502 40 71.0802 40 70.7402V71.3502H40.61Z" fill="#5C9247"/>
<path d="M50.7891 71.3502C51.1191 71.3502 51.3991 71.0802 51.3991 70.7402V71.3502H50.7891Z" fill="#5C9247"/>
<path d="M52.0104 68.5C51.6804 68.5 51.4004 68.77 51.4004 69.11V71.35H54.2504V68.5H52.0104Z" fill="#5C9247"/>
<path d="M57.1 68.5H54.25V71.35H57.1V68.5Z" fill="#5C9247"/>
<path d="M59.9496 70.74C59.9496 71.07 59.6796 71.35 59.3396 71.35H57.0996V68.5H59.9496V70.74Z" fill="#5C9247"/>
<path d="M60.5592 68.5H59.9492V69.11C59.9492 68.78 60.2192 68.5 60.5592 68.5Z" fill="#5C9247"/>
<path d="M14.35 71.3496H11.5V74.1996H14.35V71.3496Z" fill="#5C9247"/>
<path d="M14.9596 71.3496H14.3496V71.9596C14.3496 71.6296 14.6196 71.3496 14.9596 71.3496Z" fill="#5C9247"/>
<path d="M14.9596 74.1998C14.6296 74.1998 14.3496 73.9298 14.3496 73.5898V74.1998H14.9596Z" fill="#5C9247"/>
<path d="M19.4395 71.3496H17.7995C17.4695 71.3496 17.1895 71.6196 17.1895 71.9596V73.5996C17.1895 73.9296 17.4595 74.2096 17.7995 74.2096H20.0395V71.3596H19.4295L19.4395 71.3496Z" fill="#5C9247"/>
<path d="M22.9008 71.3496H20.0508V74.1996H22.9008V71.3496Z" fill="#5C9247"/>
<path d="M27.99 71.3496H26.36C26.0231 71.3496 25.75 71.6227 25.75 71.9596V73.5896C25.75 73.9265 26.0231 74.1996 26.36 74.1996H27.99C28.3269 74.1996 28.6 73.9265 28.6 73.5896V71.9596C28.6 71.6227 28.3269 71.3496 27.99 71.3496Z" fill="#5C9247"/>
<path d="M34.2992 71.3496H31.4492V74.1996H34.2992V71.3496Z" fill="#5C9247"/>
<path d="M37.1508 71.3496H34.3008V74.1996H37.1508V71.3496Z" fill="#5C9247"/>
<path d="M40.0004 71.3496H37.1504V74.1996H40.0004V71.3496Z" fill="#5C9247"/>
<path d="M40.6098 74.1998H42.2498C42.5798 74.1998 42.8598 73.9298 42.8598 73.5898V71.9498C42.8598 71.6198 42.5898 71.3398 42.2498 71.3398H40.0098V74.1898H40.6198L40.6098 74.1998Z" fill="#5C9247"/>
<path d="M47.9395 74.1998C48.2695 74.1998 48.5495 73.9298 48.5495 73.5898V74.1998H47.9395Z" fill="#5C9247"/>
<path d="M49.1608 71.3496C48.8308 71.3496 48.5508 71.6196 48.5508 71.9596V74.1996H51.4008V71.3496H49.1608Z" fill="#5C9247"/>
<path d="M54.2504 71.3496H51.4004V74.1996H54.2504V71.3496Z" fill="#5C9247"/>
<path d="M57.1 71.3496H54.25V74.1996H57.1V71.3496Z" fill="#5C9247"/>
<path d="M57.7096 71.3496H57.0996V71.9596C57.0996 71.6296 57.3696 71.3496 57.7096 71.3496Z" fill="#5C9247"/>
<path d="M11.5 76.4402C11.5 76.7702 11.77 77.0502 12.11 77.0502H14.35V74.2002H11.5V76.4402Z" fill="#5C9247"/>
<path d="M16.5896 74.2002C16.9196 74.2002 17.1996 74.4702 17.1996 74.8102V77.0502H14.3496V74.2002H16.5896Z" fill="#5C9247"/>
<path d="M20.0495 74.8102V74.2002H19.4395C19.7695 74.2002 20.0495 74.4702 20.0495 74.8102Z" fill="#5C9247"/>
<path d="M19.4395 77.0504C19.7695 77.0504 20.0495 76.7804 20.0495 76.4404V77.0504H19.4395Z" fill="#5C9247"/>
<path d="M17.8092 77.0504C17.4792 77.0504 17.1992 76.7804 17.1992 76.4404V77.0504H17.8092Z" fill="#5C9247"/>
<path d="M22.9008 74.2002H20.0508V77.0502H22.9008V74.2002Z" fill="#5C9247"/>
<path d="M23.5104 77.0504C23.1804 77.0504 22.9004 76.7804 22.9004 76.4404V77.0504H23.5104Z" fill="#5C9247"/>
<path d="M30.8398 77.0504C31.1698 77.0504 31.4498 76.7804 31.4498 76.4404V77.0504H30.8398Z" fill="#5C9247"/>
<path d="M34.2992 74.2002H31.4492V77.0502H34.2992V74.2002Z" fill="#5C9247"/>
<path d="M34.9108 74.2002H34.3008V74.8102C34.3008 74.4802 34.5708 74.2002 34.9108 74.2002Z" fill="#5C9247"/>
<path d="M37.1491 74.8102V74.2002H36.5391C36.8691 74.2002 37.1491 74.4702 37.1491 74.8102Z" fill="#5C9247"/>
<path d="M34.9108 77.0504C34.5808 77.0504 34.3008 76.7804 34.3008 76.4404V77.0504H34.9108Z" fill="#5C9247"/>
<path d="M37.1504 76.4402C37.1504 76.7702 37.4204 77.0502 37.7604 77.0502H39.4004C39.7304 77.0502 40.0104 76.7802 40.0104 76.4402V74.2002H37.1604V76.4402H37.1504Z" fill="#5C9247"/>
<path d="M40.61 74.2002H40V74.8102C40 74.4802 40.27 74.2002 40.61 74.2002Z" fill="#5C9247"/>
<path d="M46.3092 74.2002C45.9792 74.2002 45.6992 74.4702 45.6992 74.8102V77.0502H48.5492V74.2002H46.3092Z" fill="#5C9247"/>
<path d="M51.4008 76.4402C51.4008 76.7702 51.1308 77.0502 50.7908 77.0502H48.5508V74.2002H51.4008V76.4402Z" fill="#5C9247"/>
<path d="M52.0104 74.2002H51.4004V74.8102C51.4004 74.4802 51.6704 74.2002 52.0104 74.2002Z" fill="#5C9247"/>
<path d="M54.2506 74.8102V74.2002H53.6406C53.9706 74.2002 54.2506 74.4702 54.2506 74.8102Z" fill="#5C9247"/>
<path d="M53.6406 77.0504C53.9706 77.0504 54.2506 76.7804 54.2506 76.4404V77.0504H53.6406Z" fill="#5C9247"/>
<path d="M57.1 74.2002H54.25V77.0502H57.1V74.2002Z" fill="#5C9247"/>
<path d="M57.7096 77.0504C57.3796 77.0504 57.0996 76.7804 57.0996 76.4404V77.0504H57.7096Z" fill="#5C9247"/>
<path d="M62.1892 74.2002H60.5592C60.2223 74.2002 59.9492 74.4733 59.9492 74.8102V76.4402C59.9492 76.7771 60.2223 77.0502 60.5592 77.0502H62.1892C62.5261 77.0502 62.7992 76.7771 62.7992 76.4402V74.8102C62.7992 74.4733 62.5261 74.2002 62.1892 74.2002Z" fill="#5C9247"/>
<path d="M11.5006 79.29V77.65C11.5006 77.32 11.2306 77.04 10.8906 77.04H9.25062C8.92062 77.04 8.64062 77.31 8.64062 77.65V79.89H11.4906V79.28L11.5006 79.29Z" fill="#5C9247"/>
<path d="M14.3502 77.6598V77.0498H13.7402C14.0702 77.0498 14.3502 77.3198 14.3502 77.6598Z" fill="#5C9247"/>
<path d="M13.7402 79.9C14.0702 79.9 14.3502 79.63 14.3502 79.29V79.9H13.7402Z" fill="#5C9247"/>
<path d="M12.11 79.9C11.78 79.9 11.5 79.63 11.5 79.29V79.9H12.11Z" fill="#5C9247"/>
<path d="M17.1996 77.0498H14.3496V79.8998H17.1996V77.0498Z" fill="#5C9247"/>
<path d="M20.0492 77.0498H17.1992V79.8998H20.0492V77.0498Z" fill="#5C9247"/>
<path d="M22.9008 77.0498H20.0508V79.8998H22.9008V77.0498Z" fill="#5C9247"/>
<path d="M25.7504 77.0498H22.9004V79.8998H25.7504V77.0498Z" fill="#5C9247"/>
<path d="M28.6 77.0498H25.75V79.8998H28.6V77.0498Z" fill="#5C9247"/>
<path d="M31.4496 77.0498H28.5996V79.8998H31.4496V77.0498Z" fill="#5C9247"/>
<path d="M34.2992 77.0498H31.4492V79.8998H34.2992V77.0498Z" fill="#5C9247"/>
<path d="M34.9105 79.9H36.5505C36.8805 79.9 37.1605 79.63 37.1605 79.29V77.65C37.1605 77.32 36.8905 77.04 36.5505 77.04H34.3105V79.89H34.9205L34.9105 79.9Z" fill="#5C9247"/>
<path d="M45.6992 79.2898C45.6992 79.6198 45.9692 79.8998 46.3092 79.8998H47.9492C48.2792 79.8998 48.5592 79.6298 48.5592 79.2898V77.0498H45.7092V79.2898H45.6992Z" fill="#5C9247"/>
<path d="M49.1608 77.0498H48.5508V77.6598C48.5508 77.3298 48.8208 77.0498 49.1608 77.0498Z" fill="#5C9247"/>
<path d="M53.6406 77.0498H52.0006C51.6706 77.0498 51.3906 77.3198 51.3906 77.6598V79.2998C51.3906 79.6298 51.6606 79.9098 52.0006 79.9098H54.2406V77.0598H53.6306L53.6406 77.0498Z" fill="#5C9247"/>
<path d="M57.1 77.0498H54.25V79.8998H57.1V77.0498Z" fill="#5C9247"/>
<path d="M59.3396 77.0498C59.6696 77.0498 59.9496 77.3198 59.9496 77.6598V79.8998H57.0996V77.0498H59.3396Z" fill="#5C9247"/>
<path d="M65.0408 77.0498H63.4108C63.0739 77.0498 62.8008 77.3229 62.8008 77.6598V79.2898C62.8008 79.6267 63.0739 79.8998 63.4108 79.8998H65.0408C65.3777 79.8998 65.6508 79.6267 65.6508 79.2898V77.6598C65.6508 77.3229 65.3777 77.0498 65.0408 77.0498Z" fill="#5C9247"/>
<path d="M11.5004 79.9004H8.65039V82.7504H11.5004V79.9004Z" fill="#5C9247"/>
<path d="M14.35 79.9004H11.5V82.7504H14.35V79.9004Z" fill="#5C9247"/>
<path d="M17.1996 79.9004H14.3496V82.7504H17.1996V79.9004Z" fill="#5C9247"/>
<path d="M17.8092 79.9004H17.1992V80.5104C17.1992 80.1804 17.4692 79.9004 17.8092 79.9004Z" fill="#5C9247"/>
<path d="M20.0495 80.5104V79.9004H19.4395C19.7695 79.9004 20.0495 80.1704 20.0495 80.5104Z" fill="#5C9247"/>
<path d="M19.4395 82.7496C19.7695 82.7496 20.0495 82.4796 20.0495 82.1396V82.7496H19.4395Z" fill="#5C9247"/>
<path d="M17.8092 82.7496C17.4792 82.7496 17.1992 82.4796 17.1992 82.1396V82.7496H17.8092Z" fill="#5C9247"/>
<path d="M22.9008 79.9004H20.0508V82.7504H22.9008V79.9004Z" fill="#5C9247"/>
<path d="M25.7504 79.9004H22.9004V82.7504H25.7504V79.9004Z" fill="#5C9247"/>
<path d="M28.6 79.9004H25.75V82.7504H28.6V79.9004Z" fill="#5C9247"/>
<path d="M31.4496 79.9004H28.5996V82.7504H31.4496V79.9004Z" fill="#5C9247"/>
<path d="M34.2992 82.1404C34.2992 82.4704 34.0292 82.7504 33.6892 82.7504H31.4492V79.9004H34.2992V82.1404Z" fill="#5C9247"/>
<path d="M34.9108 79.9004H34.3008V80.5104C34.3008 80.1804 34.5708 79.9004 34.9108 79.9004Z" fill="#5C9247"/>
<path d="M39.3906 79.9004H37.7506C37.4206 79.9004 37.1406 80.1704 37.1406 80.5104V82.1504C37.1406 82.4804 37.4106 82.7604 37.7506 82.7604H39.9906V79.9104H39.3806L39.3906 79.9004Z" fill="#5C9247"/>
<path d="M40.6098 82.7496H42.2498C42.5798 82.7496 42.8598 82.4796 42.8598 82.1396V80.4996C42.8598 80.1696 42.5898 79.8896 42.2498 79.8896H40.0098V82.7396H40.6198L40.6098 82.7496Z" fill="#5C9247"/>
<path d="M51.3991 82.1396V80.4996C51.3991 80.1696 51.1291 79.8896 50.7891 79.8896H49.1491C48.8191 79.8896 48.5391 80.1596 48.5391 80.4996V82.7396H51.3891V82.1296L51.3991 82.1396Z" fill="#5C9247"/>
<path d="M54.2506 80.5104V79.9004H53.6406C53.9706 79.9004 54.2506 80.1704 54.2506 80.5104Z" fill="#5C9247"/>
<path d="M52.0104 82.7496C51.6804 82.7496 51.4004 82.4796 51.4004 82.1396V82.7496H52.0104Z" fill="#5C9247"/>
<path d="M54.25 82.1404C54.25 82.4704 54.52 82.7504 54.86 82.7504H57.1V79.9004H54.25V82.1404Z" fill="#5C9247"/>
<path d="M59.9496 79.9004H57.0996V82.7504H59.9496V79.9004Z" fill="#5C9247"/>
<path d="M65.0391 82.7496C65.3691 82.7496 65.6491 82.4796 65.6491 82.1396V82.7496H65.0391Z" fill="#5C9247"/>
<path d="M68.5006 82.1396V80.4996C68.5006 80.1696 68.2306 79.8896 67.8906 79.8896H66.2506C65.9206 79.8896 65.6406 80.1596 65.6406 80.4996V82.7396H68.4906V82.1296L68.5006 82.1396Z" fill="#5C9247"/>
<path d="M8.65039 84.99C8.65039 85.32 8.92039 85.6 9.26039 85.6H11.5004V82.75H8.65039V84.99Z" fill="#5C9247"/>
<path d="M14.35 82.75H11.5V85.6H14.35V82.75Z" fill="#5C9247"/>
<path d="M17.1996 82.75H14.3496V85.6H17.1996V82.75Z" fill="#5C9247"/>
<path d="M20.0492 82.75H17.1992V85.6H20.0492V82.75Z" fill="#5C9247"/>
<path d="M22.9008 84.99C22.9008 85.32 22.6308 85.6 22.2908 85.6H20.0508V82.75H22.9008V84.99Z" fill="#5C9247"/>
<path d="M23.5104 82.75H22.9004V83.36C22.9004 83.03 23.1704 82.75 23.5104 82.75Z" fill="#5C9247"/>
<path d="M28.6002 83.36V82.75H27.9902C28.3202 82.75 28.6002 83.02 28.6002 83.36Z" fill="#5C9247"/>
<path d="M27.9902 85.6002C28.3202 85.6002 28.6002 85.3302 28.6002 84.9902V85.6002H27.9902Z" fill="#5C9247"/>
<path d="M31.4496 82.75H28.5996V85.6H31.4496V82.75Z" fill="#5C9247"/>
<path d="M32.0592 82.75H31.4492V83.36C31.4492 83.03 31.7192 82.75 32.0592 82.75Z" fill="#5C9247"/>
<path d="M32.0592 85.6002C31.7292 85.6002 31.4492 85.3302 31.4492 84.9902V85.6002H32.0592Z" fill="#5C9247"/>
<path d="M36.5408 82.75H34.9108C34.5739 82.75 34.3008 83.0231 34.3008 83.36V84.99C34.3008 85.3269 34.5739 85.6 34.9108 85.6H36.5408C36.8777 85.6 37.1508 85.3269 37.1508 84.99V83.36C37.1508 83.0231 36.8777 82.75 36.5408 82.75Z" fill="#5C9247"/>
<path d="M45.0896 82.75H43.4596C43.1227 82.75 42.8496 83.0231 42.8496 83.36V84.99C42.8496 85.3269 43.1227 85.6 43.4596 85.6H45.0896C45.4265 85.6 45.6996 85.3269 45.6996 84.99V83.36C45.6996 83.0231 45.4265 82.75 45.0896 82.75Z" fill="#5C9247"/>
<path d="M48.5508 84.99C48.5508 85.32 48.8208 85.6 49.1608 85.6H51.4008V82.75H48.5508V84.99Z" fill="#5C9247"/>
<path d="M53.6404 82.75C53.9704 82.75 54.2504 83.02 54.2504 83.36V85.6H51.4004V82.75H53.6404Z" fill="#5C9247"/>
<path d="M57.1002 83.36V82.75H56.4902C56.8202 82.75 57.1002 83.02 57.1002 83.36Z" fill="#5C9247"/>
<path d="M56.4902 85.6002C56.8202 85.6002 57.1002 85.3302 57.1002 84.9902V85.6002H56.4902Z" fill="#5C9247"/>
<path d="M54.86 85.6002C54.53 85.6002 54.25 85.3302 54.25 84.9902V85.6002H54.86Z" fill="#5C9247"/>
<path d="M59.9496 82.75H57.0996V85.6H59.9496V82.75Z" fill="#5C9247"/>
<path d="M65.0391 82.75H63.3991C63.0691 82.75 62.7891 83.02 62.7891 83.36V85C62.7891 85.33 63.0591 85.61 63.3991 85.61H65.6391V82.76H65.0291L65.0391 82.75Z" fill="#5C9247"/>
<path d="M68.5004 84.99C68.5004 85.32 68.2304 85.6 67.8904 85.6H65.6504V82.75H68.5004V84.99Z" fill="#5C9247"/>
<path d="M11.5006 86.2096V85.5996H10.8906C11.2206 85.5996 11.5006 85.8696 11.5006 86.2096Z" fill="#5C9247"/>
<path d="M11.5 87.8396C11.5 88.1696 11.77 88.4496 12.11 88.4496H14.35V85.5996H11.5V87.8396Z" fill="#5C9247"/>
<path d="M17.1996 85.5996H14.3496V88.4496H17.1996V85.5996Z" fill="#5C9247"/>
<path d="M20.0492 87.8396C20.0492 88.1696 19.7792 88.4496 19.4392 88.4496H17.1992V85.5996H20.0492V87.8396V87.8396Z" fill="#5C9247"/>
<path d="M20.6608 85.5996H20.0508V86.2096C20.0508 85.8796 20.3208 85.5996 20.6608 85.5996Z" fill="#5C9247"/>
<path d="M27.9902 85.5996H26.3502C26.0202 85.5996 25.7402 85.8696 25.7402 86.2096V87.8496C25.7402 88.1796 26.0102 88.4596 26.3502 88.4596H28.5902V85.6096H27.9802L27.9902 85.5996Z" fill="#5C9247"/>
<path d="M31.4496 85.5996H28.5996V88.4496H31.4496V85.5996Z" fill="#5C9247"/>
<path d="M32.0609 88.4498H33.7009C34.0309 88.4498 34.3109 88.1798 34.3109 87.8398V86.1998C34.3109 85.8698 34.0409 85.5898 33.7009 85.5898H31.4609V88.4398H32.0709L32.0609 88.4498Z" fill="#5C9247"/>
<path d="M51.3991 86.2096V85.5996H50.7891C51.1191 85.5996 51.3991 85.8696 51.3991 86.2096Z" fill="#5C9247"/>
<path d="M54.2504 85.5996H51.4004V88.4496H54.2504V85.5996Z" fill="#5C9247"/>
<path d="M57.1 85.5996H54.25V88.4496H57.1V85.5996Z" fill="#5C9247"/>
<path d="M59.9496 85.5996H57.0996V88.4496H59.9496V85.5996Z" fill="#5C9247"/>
<path d="M14.3502 89.0602V88.4502H13.7402C14.0702 88.4502 14.3502 88.7202 14.3502 89.0602Z" fill="#5C9247"/>
<path d="M14.3496 90.6902C14.3496 91.0202 14.6196 91.3002 14.9596 91.3002H16.5996C16.9296 91.3002 17.2096 91.0302 17.2096 90.6902V88.4502H14.3596V90.6902H14.3496Z" fill="#5C9247"/>
<path d="M17.8092 88.4502H17.1992V89.0602C17.1992 88.7302 17.4692 88.4502 17.8092 88.4502Z" fill="#5C9247"/>
<path d="M22.2908 88.4502H20.6608C20.3239 88.4502 20.0508 88.7233 20.0508 89.0602V90.6902C20.0508 91.0271 20.3239 91.3002 20.6608 91.3002H22.2908C22.6277 91.3002 22.9008 91.0271 22.9008 90.6902V89.0602C22.9008 88.7233 22.6277 88.4502 22.2908 88.4502Z" fill="#5C9247"/>
<path d="M36.5391 88.4502H34.8991C34.5691 88.4502 34.2891 88.7202 34.2891 89.0602V90.7002C34.2891 91.0302 34.5591 91.3102 34.8991 91.3102H37.1391V88.4602H36.5291L36.5391 88.4502Z" fill="#5C9247"/>
<path d="M40.0004 88.4502H37.1504V91.3002H40.0004V88.4502Z" fill="#5C9247"/>
<path d="M40.6098 91.3004H42.2498C42.5798 91.3004 42.8598 91.0304 42.8598 90.6904V89.0504C42.8598 88.7204 42.5898 88.4404 42.2498 88.4404H40.0098V91.2904H40.6198L40.6098 91.3004Z" fill="#5C9247"/>
<path d="M51.4004 90.6902C51.4004 91.0202 51.6704 91.3002 52.0104 91.3002H54.2504V88.4502H51.4004V90.6902Z" fill="#5C9247"/>
<path d="M57.1 88.4502H54.25V91.3002H57.1V88.4502Z" fill="#5C9247"/>
<path d="M59.9496 90.6902C59.9496 91.0202 59.6796 91.3002 59.3396 91.3002H57.0996V88.4502H59.9496V90.6902Z" fill="#5C9247"/>
<path d="M71.9498 8.65014C71.6198 8.65014 71.3398 8.92014 71.3398 9.26014V28.0001C71.3398 28.3301 71.6098 28.6101 71.9498 28.6101H90.6898C91.0198 28.6101 91.2999 28.3401 91.2999 28.0001V9.25014C91.2999 8.92014 91.0298 8.64014 90.6898 8.64014H71.9498V8.65014ZM88.4498 14.3501V25.4001C88.4498 25.5901 88.2898 25.7501 88.0998 25.7501H74.5499C74.3599 25.7501 74.1998 25.5901 74.1998 25.4001V11.8501C74.1998 11.6601 74.3599 11.5001 74.5499 11.5001H88.0998C88.2898 11.5001 88.4498 11.6601 88.4498 11.8501V14.3501V14.3501Z" fill="#5C9247"/>
<path d="M85.5991 20.0498V14.9498C85.5991 14.6198 85.3291 14.3398 84.9891 14.3398H77.6491C77.3191 14.3398 77.0391 14.6098 77.0391 14.9498V22.2898C77.0391 22.6198 77.3091 22.8998 77.6491 22.8998H84.9891C85.3191 22.8998 85.5991 22.6298 85.5991 22.2898V20.0398V20.0498Z" fill="#5C9247"/>
<path d="M71.9498 71.3496C71.6198 71.3496 71.3398 71.6196 71.3398 71.9596V90.6996C71.3398 91.0296 71.6098 91.3096 71.9498 91.3096H90.6898C91.0198 91.3096 91.2999 91.0396 91.2999 90.6996V71.9596C91.2999 71.6296 91.0298 71.3496 90.6898 71.3496H71.9498ZM88.4498 77.0496V88.0996C88.4498 88.2896 88.2898 88.4496 88.0998 88.4496H74.5499C74.3599 88.4496 74.1998 88.2896 74.1998 88.0996V74.5496C74.1998 74.3596 74.3599 74.1996 74.5499 74.1996H88.0998C88.2898 74.1996 88.4498 74.3596 88.4498 74.5496V77.0496Z" fill="#5C9247"/>
<path d="M85.5991 82.75V77.65C85.5991 77.32 85.3291 77.04 84.9891 77.04H77.6491C77.3191 77.04 77.0391 77.31 77.0391 77.65V84.99C77.0391 85.32 77.3091 85.6 77.6491 85.6H84.9891C85.3191 85.6 85.5991 85.33 85.5991 84.99V82.74V82.75Z" fill="#5C9247"/>
<path d="M9.25062 8.65014C8.92062 8.65014 8.64062 8.92014 8.64062 9.26014V28.0001C8.64062 28.3301 8.91062 28.6101 9.25062 28.6101H28.0006C28.3306 28.6101 28.6106 28.3401 28.6106 28.0001V9.25014C28.6106 8.92014 28.3406 8.64014 28.0006 8.64014H9.26062L9.25062 8.65014ZM25.7506 14.3501V25.4001C25.7506 25.5901 25.5906 25.7501 25.4006 25.7501H11.8506C11.6606 25.7501 11.5006 25.5901 11.5006 25.4001V11.8501C11.5006 11.6601 11.6606 11.5001 11.8506 11.5001H25.4006C25.5906 11.5001 25.7506 11.6601 25.7506 11.8501V14.3501V14.3501Z" fill="#5C9247"/>
<path d="M22.8998 20.0498V14.9498C22.8998 14.6198 22.6298 14.3398 22.2898 14.3398H14.9498C14.6198 14.3398 14.3398 14.6098 14.3398 14.9498V22.2898C14.3398 22.6198 14.6098 22.8998 14.9498 22.8998H22.2898C22.6198 22.8998 22.8998 22.6298 22.8998 22.2898V20.0398V20.0498Z" fill="#5C9247"/>
<path d="M55.3714 53.2936C55.5935 53.2936 55.8068 53.2716 56.0112 53.2276C56.2156 53.1837 56.42 53.1309 56.6244 53.0694V54.533C56.4111 54.6209 56.1445 54.6956 55.8246 54.7571C55.5136 54.8275 55.1714 54.8626 54.7982 54.8626C54.3627 54.8626 53.9717 54.7923 53.6251 54.6516C53.2874 54.511 53.0164 54.2693 52.812 53.9265C52.6165 53.5749 52.5187 53.0914 52.5187 52.4761V49.0084H51.5723V48.1777L52.6653 47.5184L53.2385 46.0021H54.5049V47.5316H56.5444V49.0084H54.5049V52.4761C54.5049 52.7486 54.5849 52.9551 54.7448 53.0958C54.9048 53.2276 55.1137 53.2936 55.3714 53.2936Z" fill="#5C9247"/>
<path d="M63.764 51.118C63.764 51.7157 63.6795 52.2475 63.5107 52.7134C63.3507 53.1793 63.1152 53.5749 62.8042 53.9001C62.502 54.2165 62.1332 54.4583 61.6978 54.6253C61.2623 54.7835 60.7691 54.8626 60.2181 54.8626C59.7116 54.8626 59.2406 54.7835 58.8051 54.6253C58.3786 54.4583 58.0098 54.2165 57.6987 53.9001C57.3877 53.5749 57.1433 53.1793 56.9656 52.7134C56.7967 52.2475 56.7123 51.7157 56.7123 51.118C56.7123 50.3181 56.8545 49.6456 57.1389 49.1007C57.4232 48.5469 57.832 48.1249 58.3652 47.8349C58.8984 47.5448 59.5294 47.3998 60.2581 47.3998C60.9424 47.3998 61.5467 47.5448 62.071 47.8349C62.5954 48.1249 63.0086 48.5469 63.3107 49.1007C63.6129 49.6456 63.764 50.3181 63.764 51.118ZM58.7385 51.118C58.7385 51.5927 58.7874 51.9926 58.8851 52.3179C58.9918 52.6343 59.1562 52.876 59.3783 53.043C59.6005 53.2013 59.8893 53.2804 60.2448 53.2804C60.6003 53.2804 60.8846 53.2013 61.0979 53.043C61.3201 52.876 61.4801 52.6343 61.5778 52.3179C61.6845 51.9926 61.7378 51.5927 61.7378 51.118C61.7378 50.6433 61.6845 50.2478 61.5778 49.9313C61.4801 49.6149 61.3201 49.3775 61.0979 49.2193C60.8758 49.0611 60.5869 48.982 60.2315 48.982C59.7071 48.982 59.325 49.1622 59.0851 49.5226C58.854 49.8742 58.7385 50.406 58.7385 51.118Z" fill="#5C9247"/>
<path d="M71.0841 51.118C71.0841 51.7157 70.9997 52.2475 70.8308 52.7134C70.6709 53.1793 70.4354 53.5749 70.1243 53.9001C69.8222 54.2165 69.4534 54.4583 69.0179 54.6253C68.5825 54.7835 68.0893 54.8626 67.5383 54.8626C67.0317 54.8626 66.5607 54.7835 66.1253 54.6253C65.6987 54.4583 65.3299 54.2165 65.0189 53.9001C64.7078 53.5749 64.4635 53.1793 64.2857 52.7134C64.1169 52.2475 64.0324 51.7157 64.0324 51.118C64.0324 50.3181 64.1746 49.6456 64.459 49.1007C64.7434 48.5469 65.1522 48.1249 65.6854 47.8349C66.2186 47.5448 66.8496 47.3998 67.5783 47.3998C68.2625 47.3998 68.8669 47.5448 69.3912 47.8349C69.9155 48.1249 70.3287 48.5469 70.6309 49.1007C70.933 49.6456 71.0841 50.3181 71.0841 51.118ZM66.0586 51.118C66.0586 51.5927 66.1075 51.9926 66.2053 52.3179C66.3119 52.6343 66.4763 52.876 66.6985 53.043C66.9206 53.2013 67.2095 53.2804 67.5649 53.2804C67.9204 53.2804 68.2048 53.2013 68.4181 53.043C68.6402 52.876 68.8002 52.6343 68.898 52.3179C69.0046 51.9926 69.0579 51.5927 69.0579 51.118C69.0579 50.6433 69.0046 50.2478 68.898 49.9313C68.8002 49.6149 68.6402 49.3775 68.4181 49.2193C68.1959 49.0611 67.9071 48.982 67.5516 48.982C67.0273 48.982 66.6452 49.1622 66.4052 49.5226C66.1742 49.8742 66.0586 50.406 66.0586 51.118Z" fill="#5C9247"/>
<path d="M73.7787 54.7308H71.7925V44.71H73.7787V54.7308Z" fill="#5C9247"/>
<path d="M79.9997 52.5947C79.9997 53.0782 79.8842 53.4913 79.6531 53.8342C79.4221 54.1682 79.0755 54.4231 78.6134 54.5989C78.1513 54.7747 77.578 54.8626 76.8938 54.8626C76.3872 54.8626 75.9518 54.8275 75.5874 54.7571C75.2231 54.6956 74.8587 54.5901 74.4943 54.4407V52.8189C74.8854 52.9947 75.3075 53.1397 75.7607 53.254C76.2139 53.3683 76.6138 53.4254 76.9604 53.4254C77.3514 53.4254 77.6269 53.3683 77.7869 53.254C77.9557 53.1397 78.0402 52.9903 78.0402 52.8057C78.0402 52.6826 78.0046 52.5728 77.9335 52.4761C77.8713 52.3794 77.7291 52.2695 77.507 52.1464C77.2848 52.0234 76.9382 51.8652 76.4672 51.6718C76.014 51.4784 75.6407 51.2894 75.3475 51.1048C75.0542 50.9114 74.8365 50.6829 74.6943 50.4192C74.5521 50.1467 74.481 49.8083 74.481 49.4039C74.481 48.7359 74.7432 48.2348 75.2675 47.9008C75.7918 47.5668 76.4894 47.3998 77.3603 47.3998C77.8135 47.3998 78.2446 47.4437 78.6534 47.5316C79.0621 47.6195 79.4843 47.7645 79.9197 47.9667L79.3199 49.3775C79.0799 49.2721 78.8489 49.1798 78.6267 49.1007C78.4045 49.0215 78.1868 48.96 77.9735 48.9161C77.7691 48.8721 77.5558 48.8501 77.3337 48.8501C77.0404 48.8501 76.8182 48.8897 76.6672 48.9688C76.525 49.0479 76.4539 49.1666 76.4539 49.3248C76.4539 49.4391 76.4894 49.5446 76.5605 49.6412C76.6405 49.7292 76.7871 49.8258 77.0004 49.9313C77.2226 50.0368 77.5469 50.1774 77.9735 50.3533C78.3912 50.5203 78.7511 50.6961 79.0533 50.8807C79.3554 51.0565 79.5865 51.2806 79.7464 51.5531C79.9153 51.8168 79.9997 52.164 79.9997 52.5947Z" fill="#5C9247"/>
<path d="M28.7005 43.1074H31.7052L36.3969 54.8631H33.1373L32.3466 52.6812H28.0679L27.2771 54.8631H24L28.7005 43.1074ZM29.087 49.9827H31.3274L30.2204 46.8301H30.1941L29.087 49.9827Z" fill="#126A3A" fill-opacity="0.63"/>
<path d="M38.1707 43C38.897 43 39.5391 43.0817 40.0969 43.245C40.6605 43.4025 41.1137 43.5716 41.4565 43.7525C41.7993 43.9275 42.0085 44.0441 42.084 44.1024L40.6372 46.5523C40.5443 46.4765 40.3845 46.3744 40.1579 46.2461C39.9313 46.1178 39.6698 46.004 39.3735 45.9049C39.0829 45.7999 38.7924 45.7474 38.5019 45.7474C38.13 45.7474 37.825 45.8086 37.5868 45.9311C37.3543 46.0478 37.2381 46.2315 37.2381 46.4823C37.2381 46.6573 37.3021 46.8148 37.4299 46.9548C37.5577 47.0948 37.7611 47.2348 38.04 47.3748C38.3247 47.5148 38.6995 47.6664 39.1643 47.8298C39.6001 47.9814 40.0039 48.1652 40.3758 48.381C40.7534 48.5968 41.0817 48.8535 41.3606 49.151C41.6395 49.4484 41.8574 49.7897 42.0143 50.1747C42.177 50.5596 42.2583 50.9942 42.2583 51.4784C42.2583 52.0967 42.1305 52.6275 41.8748 53.0708C41.625 53.5083 41.2851 53.867 40.8551 54.147C40.431 54.427 39.9516 54.634 39.417 54.7682C38.8825 54.9024 38.3363 54.9694 37.7785 54.9694C36.9534 54.9694 36.2155 54.879 35.5647 54.6982C34.9198 54.5115 34.3968 54.3103 33.9959 54.0945C33.6008 53.8787 33.3626 53.7299 33.2812 53.6483L34.7716 51.1021C34.8355 51.1546 34.9721 51.2392 35.1813 51.3559C35.3904 51.4725 35.6403 51.595 35.9308 51.7233C36.2271 51.8517 36.538 51.9596 36.8634 52.0471C37.1887 52.1346 37.4967 52.1783 37.7872 52.1783C38.2288 52.1783 38.5571 52.1054 38.7721 51.9596C38.9871 51.8079 39.0946 51.6008 39.0946 51.3384C39.0946 51.1459 39.0277 50.9738 38.8941 50.8221C38.7605 50.6646 38.5426 50.5101 38.2404 50.3584C37.9383 50.2009 37.5345 50.0259 37.029 49.8334C36.5293 49.6409 36.0586 49.4018 35.617 49.116C35.1813 48.8243 34.8239 48.451 34.545 47.996C34.2719 47.541 34.1354 46.9752 34.1354 46.2986C34.1354 45.6161 34.3242 45.0299 34.7019 44.5399C35.0854 44.0441 35.5851 43.665 36.201 43.4025C36.8169 43.1342 37.4735 43 38.1707 43Z" fill="#5C9247" fill-opacity="0.84"/>
<path d="M42.476 48.976C42.476 49.5593 42.5933 50.0901 42.8278 50.5684C43.0682 51.0409 43.4025 51.4171 43.8305 51.6971C44.2586 51.9771 44.757 52.1171 45.3258 52.1171C45.8945 52.1171 46.393 51.9771 46.821 51.6971C47.2491 51.4171 47.5804 51.0409 47.8149 50.5684C48.0553 50.0901 48.1755 49.5593 48.1755 48.976C48.1755 48.3927 48.0553 47.8648 47.8149 47.3923C47.5804 46.9198 47.2491 46.5436 46.821 46.2636C46.393 45.9778 45.8945 45.8349 45.3258 45.8349C44.757 45.8349 44.2586 45.9778 43.8305 46.2636C43.4025 46.5436 43.0682 46.9198 42.8278 47.3923C42.5933 47.8648 42.476 48.3927 42.476 48.976ZM39.2832 48.976C39.2832 48.136 39.4357 47.3544 39.7406 46.6311C40.0455 45.9019 40.4706 45.2661 41.0159 44.7237C41.5613 44.1812 42.2004 43.7583 42.9334 43.455C43.6722 43.1517 44.4697 43 45.3258 43C46.1936 43 46.994 43.1517 47.7269 43.455C48.4599 43.7583 49.0991 44.1812 49.6444 44.7237C50.1897 45.2661 50.6119 45.9019 50.9109 46.6311C51.21 47.3544 51.3595 48.136 51.3595 48.976C51.3595 49.8218 51.2129 50.6092 50.9197 51.3384C50.6266 52.0617 50.2102 52.6975 49.6708 53.2458C49.1372 53.7882 48.501 54.2111 47.7621 54.5145C47.0233 54.8178 46.2112 54.9694 45.3258 54.9694C44.411 54.9694 43.5842 54.8178 42.8454 54.5145C42.1066 54.2111 41.4704 53.7882 40.9368 53.2458C40.409 52.6975 40.0015 52.0617 39.7142 51.3384C39.4269 50.6092 39.2832 49.8218 39.2832 48.976Z" fill="#8EC543" fill-opacity="0.72"/>
</g>
<defs>
<clipPath id="clip0_2598_255">
<rect width="100" height="100" fill="white"/>
</clipPath>
</defs>
</svg>
